Music_Duel_Ch0:
Music_DuelCopy_Ch0:
    tempo 132
    volume $77
    duty 2
    vibrato 7, 2, 3
    toggleperfectpitch
    notetype 12, 11, 2
    octave 3
    G_ 2
    G_ 1
    G_ 1
    G_ 4
    notetype 8, 11, 2
    rest 2
    G_ 2
    A_ 2
    B_ 2
    octave 4
    C_ 2
    C# 2
    D_ 6
    notetype 12, 11, 2
    octave 3
    B_ 4
    octave 4
    C_ 4
    octave 3
    C_ 6
Music_Duel_Ch0_loop:
    F_ 4
    F_ 4
    F_ 4
    F_ 4
    octave 4
    C_ 1
    octave 3
    B_ 1
    octave 4
    C_ 1
    octave 3
    B_ 1
    octave 4
    C_ 4
    octave 3
    A_ 1
    G# 1
    A_ 1
    G# 1
    A_ 4
    G_ 4
    G_ 4
    G_ 4
    G_ 4
    A_ 1
    G# 1
    A_ 1
    G# 1
    A_ 1
    A# 1
    octave 4
    C_ 2
    octave 3
    A# 2
    A_ 2
    G_ 4
    F_ 4
    F_ 4
    F_ 4
    F_ 4
    octave 4
    C_ 1
    octave 3
    B_ 1
    octave 4
    C_ 1
    octave 3
    B_ 1
    octave 4
    C_ 4
    F_ 1
    E_ 1
    F_ 1
    E_ 1
    F_ 4
    octave 3
    G_ 4
    G_ 4
    G_ 4
    G_ 2
    octave 4
    C_ 2
    D_ 2
    E_ 2
    D_ 2
    G_ 2
    A_ 2
    A# 2
    G_ 4
    octave 3
    G_ 4
    G_ 4
    octave 4
    C_ 1
    D_ 1
    E_ 2
    C_ 2
    D_ 10
    octave 3
    A_ 1
    A# 1
    octave 4
    C_ 2
    octave 3
    G_ 2
    A_ 16
    rest 2
    octave 4
    F_ 1
    E_ 1
    F_ 6
    G_ 1
    F# 1
    G_ 4
    octave 3
    A_ 2
    F_ 4
    F_ 4
    F_ 4
    F_ 4
    octave 4
    F_ 1
    E_ 1
    F_ 6
    G_ 1
    F# 1
    G_ 6
    octave 3
    C_ 4
    C_ 2
    A_ 2
    C_ 2
    A_ 2
    C_ 4
    D_ 4
    D_ 2
    octave 4
    C_ 2
    octave 3
    E_ 2
    octave 4
    C_ 2
    octave 3
    E_ 2
    F_ 6
    octave 4
    F_ 2
    C_ 2
    octave 3
    A# 2
    A_ 2
    octave 4
    C_ 2
    octave 3
    A# 6
    octave 4
    G_ 2
    E_ 2
    D_ 2
    C_ 2
    octave 3
    A# 2
    A_ 2
    F_ 4
    F_ 4
    F_ 4
    F_ 4
    octave 4
    F_ 1
    E_ 1
    F_ 6
    G_ 1
    F# 1
    G_ 4
    F_ 2
    octave 3
    A_ 4
    A_ 4
    A_ 4
    A_ 4
    A_ 4
    A_ 4
    A_ 4
    A_ 4
    A_ 4
    A_ 4
    A_ 4
    A_ 4
    A_ 4
    A_ 4
    A_ 4
    A_ 4
    A# 4
    A# 4
    A# 4
    A# 4
    octave 4
    C_ 4
    C_ 4
    C_ 4
    C_ 4
    C_ 4
    C_ 4
    C_ 4
    C_ 1
    rest 1
    octave 3
    A_ 16
    rest 1
    rest 16
    rest 16
    rest 16
    rest 16
    rest 11
    rest 6
    loopchannel 0, Music_Duel_Ch0_loop
Music_Duel_Ch1:
    callchannel Music_Duel_Branch6ddd
Music_Duel_Ch1_loop
    callchannel Music_Duel_Branch6e00
    callchannel Music_Duel_Branch6f22
    callchannel Music_Duel_Branch6f4e
    callchannel Music_Duel_Branch6f66
    loopchannel 0, Music_Duel_Ch1_loop
Music_DuelCopy_Ch1:
    notetype 4, 12, 1
    rest 1
    toggleperfectpitch
    callchannel Music_Duel_Branch6ddd
Music_DuelCopy_Ch1_loop:
    callchannel Music_Duel_Branch6e00
    callchannel Music_Duel_Branch6f38
    callchannel Music_Duel_Branch6f59
    callchannel Music_Duel_Branch6f66
    loopchannel 0, Music_DuelCopy_Ch1_loop
Music_Duel_Branch6ddd:
    duty 2
    notetype 12, 12, 1
    octave 4
    C_ 2
    C_ 1
    C_ 1
    notetype 12, 12, 3
    C_ 4
    notetype 8, 12, 3
    rest 2
    C_ 2
    D_ 2
    E_ 2
    F_ 2
    F# 2
    G_ 6
    B_ 3
    A_ 1
    B_ 1
    G_ 1
    notetype 12, 12, 3
    octave 5
    C_ 4
    octave 3
    G_ 2
    duty 3
    octave 4
    C_ 2
    endchannel
Music_Duel_Branch6e00
    notetype 12, 12, 3
    octave 4
    A_ 3
    G_ 1
    F_ 2
    A_ 2
    G_ 2
    A_ 2
    A# 2
    octave 5
    D_ 2
    notetype 12, 12, 6
    C_ 8
    octave 4
    A_ 6
    notetype 12, 12, 3
    C_ 2
    G_ 3
    F_ 1
    E_ 2
    F_ 2
    notetype 12, 12, 2
    G_ 2
    G_ 2
    notetype 12, 12, 3
    A_ 2
    A# 2
    notetype 12, 12, 6
    A_ 8
    octave 5
    C_ 6
    notetype 12, 12, 3
    octave 4
    C_ 2
    A_ 3
    G_ 1
    F_ 2
    A_ 2
    G_ 2
    A_ 2
    A# 2
    octave 5
    D_ 2
    notetype 12, 12, 6
    C_ 8
    F_ 8
    notetype 12, 12, 3
    E_ 3
    D_ 1
    C_ 2
    E_ 2
    D_ 2
    C_ 2
    octave 4
    B_ 2
    G_ 2
    notetype 12, 12, 5
    octave 5
    C_ 14
    notetype 12, 12, 3
    C_ 1
    C# 1
    D_ 3
    C_ 1
    octave 4
    A# 2
    A_ 2
    notetype 12, 12, 5
    octave 5
    C_ 6
    notetype 12, 12, 3
    octave 4
    A_ 2
    A# 3
    A_ 1
    G_ 2
    F_ 2
    notetype 12, 12, 5
    G_ 8
    notetype 12, 12, 2
    A_ 2
    A_ 1
    notetype 12, 12, 3
    A# 1
    octave 5
    C_ 2
    octave 4
    A# 2
    A_ 2
    F_ 2
    octave 5
    C_ 2
    octave 4
    A_ 4
    notetype 12, 12, 1
    octave 5
    D_ 1
    D_ 1
    D_ 6
    C_ 1
    C_ 1
    C_ 4
    notetype 12, 12, 2
    octave 4
    A_ 2
    A_ 1
    notetype 12, 12, 3
    A# 1
    octave 5
    C_ 2
    octave 4
    A# 2
    A_ 2
    F_ 2
    octave 5
    C_ 2
    octave 4
    A_ 4
    notetype 12, 12, 1
    D_ 1
    D_ 1
    D_ 6
    E_ 1
    E_ 1
    E_ 4
    notetype 12, 12, 2
    F_ 2
    F_ 1
    E_ 1
    D_ 2
    C_ 2
    D_ 2
    C_ 2
    octave 4
    A# 2
    A_ 4
    notetype 12, 12, 3
    D_ 1
    E_ 1
    F_ 2
    D_ 2
    E_ 2
    E_ 1
    F_ 1
    G_ 4
    notetype 12, 12, 2
    octave 5
    C_ 2
    C_ 1
    notetype 12, 12, 4
    octave 4
    A# 1
    A_ 2
    A# 2
    octave 5
    C_ 6
    octave 4
    A_ 2
    notetype 12, 12, 2
    A# 2
    A_ 1
    notetype 12, 12, 4
    octave 5
    C_ 1
    D_ 2
    octave 4
    B_ 2
    notetype 12, 12, 6
    octave 5
    C_ 8
    notetype 12, 12, 2
    octave 4
    A_ 2
    A_ 1
    notetype 12, 12, 3
    A# 1
    octave 5
    C_ 2
    octave 4
    A# 2
    A_ 2
    F_ 2
    octave 5
    C_ 2
    octave 4
    A_ 4
    notetype 12, 12, 1
    octave 5
    D_ 1
    D_ 1
    D_ 6
    E_ 1
    E_ 1
    E_ 4
    duty 2
    notetype 12, 11, 2
    F_ 2
    octave 4
    F_ 4
    F_ 4
    F_ 4
    F_ 4
    F_ 4
    F_ 4
    F_ 4
    duty 3
    notetype 12, 12, 2
    E_ 2
    A_ 3
    A_ 1
    A_ 2
    A# 2
    octave 5
    C_ 4
    notetype 6, 12, 2
    octave 4
    E_ 1
    F_ 1
    G_ 1
    A_ 1
    A# 1
    octave 5
    C_ 1
    D_ 1
    E_ 1
    F_ 6
    E_ 2
    D_ 4
    E_ 4
    notetype 6, 12, 6
    C_ 16
    notetype 6, 12, 3
    D_ 6
    C_ 2
    octave 4
    A# 4
    octave 5
    D_ 4
    notetype 8, 12, 8
    C_ 2
    octave 4
    A# 2
    octave 5
    C_ 2
    octave 4
    A# 2
    octave 5
    C_ 2
    octave 4
    A# 2
    endchannel
Music_Duel_Branch6f22:
    octave 5
    C_ 2
    D_ 2
    C_ 2
    D_ 2
    C_ 2
    D_ 2
    notetype 8, 12, 6
    C_ 12
    notetype 8, 12, 3
    rest 1
    rest 1
    rest 1
    rest 1
    rest 1
    rest 1
    notetype 8, 12, 6
    rest 12
    endchannel
Music_Duel_Branch6f38:
    notetype 8, 12, 3
    rest 1
    rest 1
    rest 1
    rest 1
    rest 1
    rest 1
    notetype 8, 12, 6
    rest 12
    octave 5
    C_ 2
    D_ 2
    C_ 2
    D_ 2
    C_ 2
    D_ 2
    notetype 8, 12, 6
    C_ 12
    endchannel
Music_Duel_Branch6f4e:
    notetype 8, 12, 6
    pitchbend 0, 69
    F_ 16
    rest 8
    rest 16
    rest 16
    rest 16
    endchannel
Music_Duel_Branch6f59:
    notetype 8, 12, 6
    rest 16
    octave 4
    pitchbend 0, 85
    F_ 16
    octave 5
    rest 8
    rest 16
    rest 16
    endchannel
Music_Duel_Branch6f66:
    notetype 8, 13, 0
    vibrato 0, 6, 0
    octave 4
    A# 12
    vibrato 0, 0, 0
    notetype 12, 13, 1
    octave 5
    C_ 16
    notetype 12, 12, 1
    rest 1
    rest 16
    rest 3
    C_ 2
    octave 4
    C_ 2
    endchannel
Music_Duel_Ch2:
    toggleperfectpitch
Music_DuelCopy_Ch2:
    notetype 6, 1, 0
    octave 4
    E_ 3
    rest 1
    E_ 1
    rest 1
    E_ 1
    rest 1
    notetype 12, 1, 0
    E_ 4
    rest 12
    D_ 1
    rest 3
    C_ 1
    rest 3
    octave 3
    G_ 1
    rest 3
Music_Duel_Ch2_loop:
    C_ 1
    rest 1
    octave 4
    C_ 1
    rest 1
    octave 3
    F_ 1
    rest 1
    octave 4
    C_ 1
    rest 1
    octave 3
    E_ 1
    rest 1
    octave 4
    C_ 1
    rest 1
    octave 3
    D_ 1
    rest 1
    octave 4
    C_ 1
    rest 1
    octave 3
    C_ 1
    rest 1
    octave 4
    C_ 1
    rest 1
    octave 3
    F_ 1
    rest 1
    octave 4
    C_ 1
    rest 1
    octave 3
    E_ 1
    rest 1
    octave 4
    C_ 1
    rest 1
    octave 3
    D_ 1
    rest 1
    octave 4
    C_ 1
    rest 1
    octave 3
    E_ 1
    rest 1
    octave 4
    D_ 1
    rest 1
    octave 3
    A# 1
    rest 1
    octave 4
    D_ 1
    rest 1
    octave 3
    A_ 1
    rest 1
    octave 4
    D_ 1
    rest 1
    octave 3
    G_ 1
    rest 1
    octave 4
    D_ 1
    rest 1
    octave 3
    F_ 1
    rest 1
    octave 4
    E_ 1
    rest 1
    C_ 1
    rest 1
    E_ 1
    rest 1
    octave 3
    A# 1
    rest 1
    octave 4
    E_ 1
    rest 1
    octave 3
    G_ 1
    rest 1
    octave 4
    C_ 1
    rest 1
    octave 3
    C_ 1
    rest 1
    octave 4
    C_ 1
    rest 1
    octave 3
    F_ 1
    rest 1
    octave 4
    C_ 1
    rest 1
    octave 3
    E_ 1
    rest 1
    octave 4
    C_ 1
    rest 1
    octave 3
    D_ 1
    rest 1
    octave 4
    C_ 1
    rest 1
    octave 3
    C_ 1
    rest 1
    octave 4
    C_ 1
    rest 1
    octave 3
    F_ 1
    rest 1
    octave 4
    C_ 1
    rest 1
    octave 3
    E_ 1
    rest 1
    octave 4
    C_ 1
    rest 1
    octave 3
    D_ 1
    rest 1
    octave 4
    C_ 1
    rest 1
    octave 3
    E_ 1
    rest 1
    octave 4
    D_ 1
    rest 1
    octave 3
    G_ 1
    rest 1
    octave 4
    D_ 1
    rest 1
    octave 3
    D_ 1
    rest 1
    octave 4
    D_ 1
    rest 1
    octave 3
    F_ 1
    rest 1
    octave 4
    D_ 1
    rest 1
    octave 3
    C_ 1
    rest 1
    octave 4
    E_ 1
    rest 1
    C_ 1
    rest 1
    E_ 1
    octave 3
    A# 1
    rest 1
    octave 4
    E_ 1
    rest 1
    octave 3
    G_ 1
    rest 1
    octave 4
    E_ 1
    rest 1
    octave 3
    D_ 1
    rest 1
    octave 3
    D_ 1
    rest 1
    octave 4
    G_ 1
    rest 1
    octave 3
    D_ 1
    rest 1
    octave 4
    D_ 1
    rest 1
    octave 3
    C_ 1
    rest 1
    octave 4
    C_ 1
    rest 1
    octave 3
    E_ 1
    rest 1
    octave 4
    C_ 1
    rest 1
    octave 2
    A# 1
    rest 1
    octave 3
    A# 1
    rest 1
    D_ 1
    rest 1
    A# 1
    rest 1
    octave 2
    A_ 1
    rest 1
    octave 3
    A_ 1
    A_ 1
    A_ 1
    rest 1
    G_ 1
    rest 1
    octave 2
    A_ 1
    rest 1
    octave 3
    A_ 1
    rest 1
    C_ 1
    rest 1
    A_ 1
    rest 1
    octave 2
    F_ 1
    rest 1
    octave 3
    A_ 1
    rest 1
    C_ 1
    rest 1
    A_ 1
    rest 1
    octave 2
    A# 1
    rest 1
    octave 3
    A# 1
    rest 1
    D_ 1
    rest 1
    A# 1
    rest 1
    C_ 1
    rest 1
    octave 4
    C_ 1
    rest 1
    octave 3
    G_ 1
    rest 1
    octave 4
    C_ 1
    rest 1
    octave 2
    A_ 1
    rest 1
    octave 3
    A_ 1
    rest 1
    C_ 1
    rest 1
    A_ 1
    rest 1
    octave 2
    F_ 1
    rest 1
    octave 3
    A_ 1
    rest 1
    C_ 1
    rest 1
    A_ 1
    rest 1
    octave 2
    A# 1
    rest 1
    octave 3
    A# 1
    rest 1
    D_ 1
    rest 1
    A# 1
    rest 1
    C_ 1
    rest 1
    octave 4
    C_ 1
    rest 1
    octave 3
    G_ 1
    rest 1
    octave 4
    C_ 1
    rest 1
    octave 2
    A_ 1
    rest 1
    octave 3
    A_ 1
    rest 1
    C_ 1
    rest 1
    A_ 1
    rest 1
    octave 2
    F_ 1
    rest 1
    octave 3
    A_ 1
    rest 1
    C_ 1
    rest 1
    A_ 1
    rest 1
    octave 2
    A# 1
    rest 1
    octave 3
    A# 1
    rest 1
    D_ 1
    rest 1
    A# 1
    rest 1
    E_ 1
    rest 1
    octave 4
    C_ 1
    rest 1
    octave 3
    C_ 1
    rest 1
    octave 4
    C_ 1
    rest 1
    octave 3
    F_ 1
    rest 16
    rest 9
    E_ 1
    F_ 1
    G_ 1
    rest 1
    E_ 1
    octave 2
    A_ 1
    rest 1
    octave 3
    A_ 1
    rest 1
    C_ 1
    rest 1
    A_ 1
    rest 1
    octave 2
    F_ 1
    rest 1
    octave 3
    A_ 1
    rest 1
    C_ 1
    rest 1
    A_ 1
    rest 1
    octave 2
    A# 1
    rest 1
    octave 3
    A# 1
    rest 1
    D_ 1
    rest 1
    A# 1
    rest 1
    C_ 1
    rest 1
    octave 4
    C_ 1
    rest 1
    octave 3
    G_ 1
    rest 1
    octave 4
    C_ 1
    rest 1
    octave 3
    F_ 1
    rest 1
    octave 4
    F_ 1
    rest 1
    C_ 1
    rest 1
    F_ 1
    rest 1
    octave 3
    A# 1
    rest 1
    octave 4
    F_ 1
    rest 1
    octave 3
    A_ 1
    rest 1
    octave 4
    F_ 1
    rest 1
    octave 3
    F_ 1
    rest 1
    octave 4
    F_ 1
    rest 1
    C_ 1
    rest 1
    F_ 1
    rest 1
    octave 3
    A# 1
    rest 1
    octave 4
    F_ 1
    rest 1
    octave 3
    A_ 1
    rest 1
    octave 4
    F_ 1
    rest 1
    octave 3
    F_ 1
    rest 1
    octave 4
    F_ 1
    rest 1
    C_ 1
    rest 1
    F_ 1
    rest 1
    octave 3
    A# 1
    rest 1
    octave 4
    F_ 1
    rest 1
    octave 3
    A_ 1
    rest 1
    octave 4
    F_ 1
    rest 1
    octave 3
    F_ 1
    rest 1
    octave 4
    F_ 1
    rest 1
    C_ 1
    rest 1
    F_ 1
    rest 1
    octave 3
    A# 1
    rest 1
    octave 4
    F_ 1
    rest 1
    octave 3
    A_ 1
    rest 1
    octave 4
    F_ 1
    rest 1
    octave 3
    G_ 1
    rest 1
    octave 4
    G_ 1
    rest 1
    D_ 1
    rest 1
    G_ 1
    rest 1
    C_ 1
    rest 1
    G_ 1
    octave 3
    A# 1
    rest 1
    octave 4
    G_ 1
    rest 1
    octave 3
    C_ 1
    rest 1
    octave 4
    G_ 1
    rest 1
    octave 3
    E_ 1
    rest 1
    octave 4
    G_ 1
    rest 1
    octave 3
    G_ 1
    rest 1
    octave 4
    G_ 1
    rest 1
    octave 3
    A# 1
    rest 1
    octave 4
    G_ 1
    rest 1
    octave 3
    C_ 1
    rest 1
    octave 4
    G_ 1
    rest 1
    octave 3
    E_ 1
    rest 1
    octave 4
    G_ 1
    rest 1
    octave 3
    G_ 1
    rest 1
    octave 4
    G_ 1
    rest 1
    octave 3
    A# 1
    rest 1
    octave 4
    G_ 1
    rest 1
    octave 3
    F_ 1
    rest 16
    rest 16
    rest 16
    rest 16
    rest 16
    rest 9
    C_ 2
    D_ 2
    E_ 2
    loopchannel 0, Music_Duel_Ch2_loop
Music_Duel_Ch3:
    callchannel Music_Duel_Branch71f2
Music_Duel_Ch3_loop:
    callchannel Music_Duel_Branch7217
    callchannel Music_Duel_Branch74f0
    callchannel Music_Duel_Branch753c
    loopchannel 0, Music_Duel_Ch3_loop:
Music_DuelCopy_Ch3:
    callchannel Music_Duel_Branch71f2
Music_DuelCopy_Ch3_loop:
    callchannel Music_Duel_Branch7217
    callchannel Music_Duel_Branch7516
    callchannel Music_Duel_Branch753c
    loopchannel 0, Music_DuelCopy_Ch3_loop
Music_Duel_Branch71f2:
    dspeed 12
    rest 4
    dspeed 6
    ysnare2 1
    ysnare3 1
    ysnare2 1
    ysnare3 1
    ysnare2 1
    ysnare3 1
    ysnare2 1
    ysnare3 1
    ysnare1 2
    rest 14
    ysnare1 2
    rest 6
    ysnare1 2
    rest 4
    ysnare1 2
    ysnare1 2
    rest 6
    ylodrum 2
    rest 6
    endchannel
Music_Duel_Branch7217
    dspeed 6
    ysnare1 2
    rest 2
    monsnare2 2
    rest 2
    ysnare1 2
    rest 2
    monsnare2 2
    rest 2
    ysnare1 2
    rest 2
    monsnare2 2
    rest 2
    ysnare1 2
    rest 2
    monsnare2 2
    rest 2
    ysnare1 2
    rest 2
    monsnare2 2
    rest 2
    ysnare1 2
    rest 2
    monsnare2 2
    rest 2
    ysnare1 2
    rest 2
    monsnare2 2
    rest 2
    monsnare2 2
    rest 2
    monsnare2 2
    rest 2
    ysnare1 2
    rest 2
    monsnare2 2
    rest 2
    ysnare1 2
    rest 2
    monsnare2 2
    rest 2
    ysnare1 2
    rest 2
    monsnare2 2
    rest 2
    ysnare1 2
    rest 2
    monsnare2 2
    rest 2
    ysnare1 2
    rest 2
    monsnare2 2
    rest 2
    ysnare1 2
    rest 2
    monsnare2 2
    rest 2
    ysnare1 2
    rest 2
    monsnare2 2
    rest 2
    ysnare1 2
    rest 2
    monsnare2 2
    monsnare2 2
    ysnare1 2
    rest 2
    monsnare2 2
    rest 2
    ysnare1 2
    rest 2
    monsnare2 2
    rest 2
    ysnare1 2
    rest 2
    monsnare2 2
    rest 2
    ysnare1 2
    rest 2
    monsnare2 2
    rest 2
    ysnare1 2
    rest 2
    monsnare2 2
    rest 2
    ysnare1 2
    rest 2
    monsnare2 2
    rest 2
    ysnare1 2
    rest 2
    monsnare2 2
    rest 2
    ysnare1 2
    monsnare2 2
    monsnare2 2
    monsnare2 2
    ysnare1 2
    rest 2
    monsnare2 2
    rest 2
    ysnare1 2
    rest 2
    monsnare2 2
    rest 2
    ysnare1 2
    rest 2
    monsnare2 2
    rest 2
    ysnare1 2
    rest 2
    monsnare2 2
    rest 2
    ysnare1 2
    rest 2
    monsnare2 2
    rest 2
    ysnare1 2
    rest 2
    monsnare2 2
    rest 2
    ysnare1 2
    rest 2
    monsnare2 2
    rest 2
    monsnare2 2
    rest 2
    monsnare2 2
    rest 2
    ysnare1 2
    rest 2
    monsnare2 2
    rest 2
    ysnare1 2
    rest 2
    monsnare2 2
    rest 2
    ysnare1 2
    rest 2
    monsnare2 2
    rest 2
    ysnare1 2
    rest 2
    monsnare2 2
    rest 2
    ysnare1 2
    rest 2
    monsnare2 2
    rest 2
    ysnare1 2
    rest 2
    monsnare2 2
    rest 2
    ysnare1 2
    rest 2
    monsnare2 2
    rest 2
    ysnare1 2
    rest 2
    monsnare2 2
    monsnare2 2
    ysnare1 2
    rest 2
    monsnare2 2
    rest 2
    ysnare1 2
    rest 2
    monsnare2 2
    rest 2
    ysnare1 2
    rest 2
    monsnare2 2
    rest 2
    ysnare1 2
    rest 2
    monsnare2 2
    rest 2
    ysnare1 2
    rest 2
    monsnare2 2
    rest 2
    ysnare1 2
    rest 2
    monsnare2 2
    monsnare2 2
    ysnare1 2
    rest 2
    monsnare2 2
    monsnare2 2
    ysnare1 2
    rest 2
    monsnare2 2
    rest 2
    ysnare1 2
    rest 2
    monsnare2 2
    rest 2
    ysnare1 2
    rest 2
    monsnare2 2
    rest 2
    ysnare1 2
    rest 2
    monsnare2 2
    rest 2
    ysnare1 2
    rest 2
    monsnare2 2
    rest 2
    ysnare1 2
    rest 2
    monsnare2 2
    rest 2
    ysnare1 2
    rest 2
    monsnare2 2
    monsnare2 2
    ysnare1 2
    rest 2
    monsnare2 2
    monsnare2 2
    ysnare1 2
    rest 2
    ysnare1 2
    rest 2
    crash 2
    rest 16
    rest 16
    rest 14
    crash 2
    rest 10
    monsnare2 2
    rest 2
    ysnare1 2
    rest 2
    monsnare2 2
    rest 2
    ysnare1 2
    rest 2
    monsnare2 2
    rest 2
    ysnare1 2
    rest 2
    monsnare2 2
    rest 2
    ysnare1 2
    rest 2
    monsnare2 2
    rest 2
    ysnare1 2
    rest 2
    monsnare2 2
    rest 2
    ysnare1 2
    rest 2
    monsnare2 2
    rest 2
    ysnare1 2
    rest 2
    monsnare2 2
    rest 2
    monsnare2 2
    rest 2
    monsnare2 2
    rest 2
    ysnare1 2
    rest 2
    monsnare2 2
    rest 2
    ysnare1 2
    rest 2
    monsnare2 2
    rest 2
    ysnare1 2
    rest 2
    monsnare2 2
    monsnare2 2
    ysnare1 2
    rest 2
    monsnare2 2
    rest 2
    ysnare1 2
    rest 2
    monsnare2 2
    rest 2
    ysnare1 2
    rest 2
    monsnare2 2
    rest 2
    ysnare1 2
    rest 2
    monsnare2 2
    monsnare2 2
    ysnare1 2
    rest 2
    monsnare2 2
    monsnare2 2
    ysnare1 2
    rest 2
    monsnare2 2
    rest 2
    ysnare1 2
    rest 2
    monsnare2 2
    rest 2
    ysnare1 2
    rest 2
    monsnare2 2
    rest 2
    ysnare1 2
    rest 2
    monsnare2 2
    rest 2
    ysnare1 2
    rest 2
    monsnare2 2
    rest 2
    ysnare1 2
    rest 2
    monsnare2 2
    rest 2
    ysnare1 2
    rest 2
    monsnare2 2
    rest 2
    monsnare2 2
    rest 2
    monsnare2 2
    rest 2
    ysnare1 2
    rest 2
    monsnare2 2
    rest 2
    ysnare1 2
    rest 2
    monsnare2 2
    rest 2
    ysnare1 2
    rest 2
    monsnare2 2
    rest 2
    ysnare1 2
    rest 2
    monsnare2 2
    rest 2
    ysnare1 2
    rest 2
    monsnare2 2
    rest 2
    ysnare1 2
    rest 2
    monsnare2 2
    rest 2
    ysnare1 2
    rest 2
    monsnare2 2
    monsnare2 2
    ysnare1 2
    rest 2
    monsnare2 2
    rest 2
    ysnare1 2
    rest 2
    monsnare2 2
    rest 2
    ysnare1 2
    rest 2
    monsnare2 2
    rest 2
    ysnare1 2
    rest 2
    monsnare2 2
    monsnare2 2
    ysnare1 2
    rest 2
    monsnare2 2
    rest 2
    ysnare1 2
    rest 2
    ysnare1 2
    rest 2
    ysnare1 2
    ysnare1 2
    rest 2
    ysnare1 2
    ysnare1 2
    rest 2
    ysnare1 2
    ysnare1 2
    ysnare1 2
    rest 6
    ysnare1 2
    rest 2
    ysnare1 2
    ysnare1 2
    ysnare1 2
    rest 2
    ysnare1 2
    rest 2
    ysnare1 2
    rest 2
    ysnare1 2
    rest 2
    ysnare1 2
    rest 6
    dspeed 8
    ysnare1 2
    yhisnare 2
    ysnare1 2
    ysnare1 2
    rest 4
    ysnare1 2
    yhisnare 2
    ysnare1 2
    ysnare1 2
    rest 4
    dspeed 6
    ysnare2 1
    ysnare3 1
    ysnare2 1
    ysnare3 1
    ysnare2 1
    ysnare3 1
    ysnare2 1
    ysnare3 1
    ysnare2 1
    ysnare3 1
    ysnare2 1
    ysnare3 1
    ysnare2 1
    ysnare3 1
    ysnare2 1
    ysnare3 1
    ysnare1 2
    rest 2
    ysnare1 2
    rest 10
    endchannel
Music_Duel_Branch74f0:
    ysnare1 2
    rest 6
    monsnare2 2
    rest 6
    ysnare1 2
    rest 2
    monsnare2 2
    rest 6
    ysnare1 2
    dspeed 8
    ysnare1 2
    monsnare2 2
    ysnare1 2
    monsnare2 2
    ysnare1 2
    monsnare2 2
    dspeed 12
    ysnare1 1
    rest 3
    ylodrum 1
    rest 1
    monsnare2 1
    endchannel
Music_Duel_Branch7516:
    monsnare2 2
    rest 6
    ysnare1 2
    rest 6
    monsnare2 2
    rest 2
    ysnare1 2
    rest 6
    monsnare2 2
    dspeed 8
    monsnare2 2
    ysnare1 2
    monsnare2 2
    ysnare1 2
    monsnare2 2
    ysnare1 2
    dspeed 12
    ysnare1 1
    rest 3
    ylodrum 1
    rest 1
    monsnare2 1
    endchannel
Music_Duel_Branch753c:
    rest 1
    endchannel