Music_FireFlower_Ch0:
    tempo 224
    volume $77
    duty 2
    toggleperfectpitch
    notetype 12, 11, 3
    rest 4
    octave 4
    C_ 8
    octave 3
    B_ 8
    E_ 2
    G_ 2
    C_ 2
    G_ 10
Music_FireFlowerMenu_Ch0:
    tempo 224
    volume $77
    duty 2
    toggleperfectpitch
    notetype 12, 11, 3
    rest 16
    rest 10
    octave 3
    G_ 1
    F_ 1
    E_ 1
    F_ 1
    E_ 1
    D_ 1
    C_ 2
    octave 2
    G_ 2
    octave 3
    C_ 2
    E_ 2
    D_ 2
    F_ 2
    C_ 2
    E_ 2
    D_ 2
    octave 2
    B_ 1
    octave 3
    C_ 1
    D_ 2
    F_ 2
    G_ 4
    F_ 4
Music_FireFlower_Ch0_loop:
    E_ 2
    C_ 2
    E_ 2
    G_ 2
    F_ 2
    C_ 2
    E_ 2
    C_ 2
    D_ 2
    octave 2
    B_ 1
    octave 3
    C_ 1
    D_ 2
    F_ 2
    E_ 2
    F_ 1
    E_ 1
    D_ 2
    G_ 2
    C_ 2
    D_ 2
    E_ 2
    D_ 2
    E_ 1
    D_ 1
    C_ 2
    E_ 2
    G_ 2
    D_ 4
    F_ 4
    G_ 2
    F_ 2
    F_ 2
    D_ 2
    E_ 2
    G_ 2
    C_ 2
    E_ 1
    G_ 1
    F_ 4
    G_ 2
    E_ 2
    F_ 2
    F_ 2
    E_ 2
    E_ 2
    D_ 2
    F_ 2
    octave 2
    B_ 2
    octave 3
    F_ 2
    G_ 1
    F_ 1
    E_ 2
    E_ 2
    G_ 2
    F_ 2
    E_ 2
    D_ 2
    C_ 2
    D_ 1
    C_ 1
    octave 2
    B_ 1
    octave 3
    C_ 1
    D_ 2
    E_ 2
    F_ 2
    E_ 2
    F_ 2
    A_ 2
    G_ 1
    F_ 1
    E_ 1
    D_ 1
    C_ 2
    octave 2
    B_ 2
    A_ 2
    B_ 2
    octave 3
    C_ 2
    C_ 2
    D_ 1
    C_ 1
    octave 2
    B_ 1
    A_ 1
    octave 3
    C_ 2
    E_ 2
    F_ 1
    D_ 1
    E_ 1
    C_ 1
    D_ 16
    rest 4
    rest 2
    G_ 4
    G_ 8
    F_ 2
    E_ 16
    rest 12
    G_ 2
    F_ 2
    E_ 2
    F_ 2
    G_ 2
    F_ 2
    E_ 2
    D_ 2
    E_ 2
    G_ 2
    A_ 1
    F_ 1
    G_ 1
    E_ 1
    F_ 2
    E_ 1
    G_ 1
    A_ 1
    G_ 1
    A_ 2
    B_ 2
    octave 4
    D_ 2
    notetype 12, 10, 5
    E_ 8
    C_ 8
    F_ 8
    D_ 4
    E_ 4
    G_ 8
    E_ 4
    B_ 4
    E_ 8
    E_ 8
    C_ 8
    octave 3
    B_ 8
    A_ 8
    G_ 8
    A_ 8
    B_ 8
    notetype 12, 11, 3
    G_ 4
    F_ 4
    E_ 4
    D_ 4
    octave 4
    C_ 4
    octave 3
    B_ 4
    A_ 4
    G_ 2
    B_ 2
    octave 4
    C_ 4
    octave 3
    F_ 4
    G_ 4
    C_ 4
    D_ 4
    E_ 4
    F_ 4
    G_ 16
    rest 4
    rest 16
    rest 16
    rest 16
    loopchannel 0, Music_FireFlower_Ch0_loop:
Music_FireFlower_Ch1:
    duty 2
    notetype 12, 12, 3
    octave 4
    C_ 2
    D_ 2
    E_ 4
    F_ 2
    E_ 2
    D_ 2
    C_ 2
    octave 3
    B_ 2
    octave 4
    D_ 2
    C_ 4
    D_ 4
    C_ 2
    octave 3
    G_ 2
    F_ 2
    G_ 2
Music_FireFlowerMenu_Ch1:
    duty 2
    notetype 12, 12, 3
    octave 4
    C_ 2
    octave 3
    G_ 2
    octave 4
    C_ 2
    E_ 2
    D_ 2
    octave 3
    G_ 2
    octave 4
    D_ 2
    F_ 2
    E_ 2
    C_ 1
    D_ 1
    E_ 2
    F_ 2
    E_ 4
    D_ 2
    C_ 1
    D_ 1
    E_ 2
    C_ 2
    E_ 2
    G_ 2
    F_ 2
    C_ 2
    E_ 2
    C_ 2
    D_ 2
    octave 3
    G_ 2
    octave 4
    D_ 2
    F_ 2
    E_ 2
    F_ 1
    E_ 1
    D_ 4
Music_FireFlower_Ch1_loop:
    rest 2
    C_ 1
    D_ 1
    E_ 2
    F_ 1
    E_ 1
    D_ 2
    octave 3
    B_ 1
    octave 4
    C_ 1
    D_ 2
    E_ 2
    F_ 2
    E_ 2
    D_ 2
    C_ 2
    octave 3
    B_ 2
    A_ 2
    G_ 2
    B_ 2
    octave 4
    G_ 1
    F_ 1
    E_ 1
    D_ 1
    C_ 2
    octave 3
    B_ 2
    A_ 2
    octave 4
    E_ 2
    octave 3
    G_ 2
    octave 4
    E_ 2
    F_ 2
    D_ 1
    E_ 1
    F_ 2
    C_ 2
    octave 3
    B_ 2
    octave 4
    F_ 2
    D_ 2
    F_ 2
    E_ 2
    C_ 1
    D_ 1
    E_ 2
    D_ 2
    C_ 2
    D_ 2
    E_ 2
    C_ 2
    D_ 1
    C_ 1
    octave 3
    B_ 1
    octave 4
    C_ 1
    D_ 2
    E_ 2
    F_ 8
    E_ 2
    E_ 2
    E_ 1
    D_ 1
    C_ 1
    D_ 1
    C_ 2
    C_ 1
    octave 3
    B_ 1
    A_ 1
    G_ 1
    F_ 1
    G_ 1
    A_ 2
    A_ 2
    octave 4
    C_ 2
    C_ 2
    octave 3
    B_ 2
    octave 4
    C_ 2
    D_ 4
    E_ 2
    E_ 2
    E_ 1
    D_ 1
    C_ 1
    D_ 1
    C_ 2
    C_ 1
    octave 3
    B_ 1
    A_ 1
    G_ 1
    F_ 1
    G_ 1
    A_ 2
    A_ 2
    octave 4
    C_ 2
    C_ 2
    octave 3
    B_ 2
    octave 4
    C_ 2
    D_ 4
    C_ 1
    octave 3
    B_ 1
    A_ 2
    G_ 2
    octave 4
    E_ 2
    octave 3
    G_ 2
    octave 4
    E_ 2
    C_ 2
    E_ 2
    F_ 2
    E_ 2
    D_ 2
    C_ 1
    D_ 1
    octave 3
    B_ 2
    octave 4
    C_ 2
    D_ 4
    G_ 1
    E_ 1
    F_ 1
    D_ 1
    E_ 1
    C_ 1
    D_ 1
    octave 3
    B_ 1
    octave 4
    C_ 4
    G_ 1
    E_ 1
    F_ 1
    D_ 1
    E_ 1
    C_ 1
    D_ 1
    octave 3
    B_ 1
    octave 4
    C_ 2
    C_ 1
    D_ 1
    E_ 2
    C_ 2
    F_ 4
    G_ 1
    E_ 1
    F_ 1
    D_ 1
    E_ 1
    C_ 1
    D_ 1
    octave 3
    B_ 1
    octave 4
    C_ 2
    C_ 1
    D_ 1
    E_ 1
    D_ 1
    C_ 1
    D_ 1
    F_ 2
    F_ 2
    E_ 2
    E_ 2
    D_ 2
    E_ 2
    F_ 4
    notetype 12, 11, 7
    G_ 8
    E_ 8
    A_ 8
    F_ 8
    B_ 8
    G_ 8
    notetype 12, 12, 3
    octave 5
    C_ 2
    C_ 2
    octave 4
    B_ 2
    B_ 2
    A_ 1
    G_ 1
    A_ 1
    B_ 2
    G_ 2
    octave 5
    C_ 2
    C_ 1
    D_ 1
    C_ 1
    octave 4
    B_ 1
    A_ 1
    G_ 1
    E_ 1
    F_ 1
    G_ 2
    C_ 2
    G_ 2
    A_ 1
    G_ 1
    F_ 1
    G_ 1
    A_ 2
    B_ 2
    A_ 2
    G_ 2
    F_ 2
    E_ 2
    D_ 1
    E_ 1
    F_ 2
    E_ 1
    F_ 1
    G_ 2
    F_ 1
    G_ 1
    A_ 2
    B_ 2
    G_ 2
    G_ 1
    F_ 1
    E_ 1
    D_ 1
    C_ 2
    octave 3
    B_ 2
    A_ 2
    octave 4
    D_ 2
    octave 3
    B_ 2
    octave 4
    D_ 2
    E_ 8
    G_ 8
    E_ 2
    E_ 2
    E_ 1
    D_ 1
    C_ 1
    D_ 1
    C_ 2
    C_ 1
    octave 3
    B_ 1
    A_ 1
    G_ 1
    F_ 1
    G_ 1
    A_ 2
    A_ 2
    octave 4
    C_ 2
    C_ 2
    octave 3
    B_ 2
    octave 4
    C_ 2
    D_ 4
    C_ 2
    octave 3
    G_ 2
    octave 4
    C_ 2
    E_ 2
    D_ 2
    octave 3
    G_ 2
    octave 4
    D_ 2
    F_ 2
    E_ 2
    C_ 1
    D_ 1
    E_ 2
    F_ 2
    E_ 2
    C_ 2
    D_ 4
    E_ 2
    C_ 2
    E_ 2
    G_ 2
    F_ 2
    C_ 2
    E_ 2
    C_ 2
    D_ 2
    octave 3
    G_ 2
    octave 4
    D_ 2
    F_ 2
    E_ 4
    D_ 4
    loopchannel 0, Music_FireFlower_Ch1_loop
Music_FireFlower_Ch2:
    notetype 12, 1, 0
    vibrato 8, 2, 6
    rest 4
    rest 16
    rest 16
Music_FireFlowerMenu_Ch2:
    notetype 12, 1, 0
    vibrato 8, 2, 6
    rest 16
    rest 16
    rest 16
    rest 12
    octave 2
    B_ 1
    octave 3
    C_ 1
    D_ 1
    octave 2
    B_ 1
Music_FireFlower_Ch2_loop:
    octave 3
    C_ 2
    octave 2
    G_ 2
    octave 3
    C_ 2
    E_ 2
    D_ 2
    F_ 2
    C_ 2
    E_ 2
    D_ 1
    C_ 1
    octave 2
    B_ 1
    octave 3
    C_ 1
    octave 2
    B_ 2
    octave 3
    C_ 2
    D_ 4
    G_ 4
    rest 16
    rest 16
    E_ 2
    C_ 2
    E_ 2
    G_ 2
    F_ 4
    E_ 4
    D_ 3
    rest 1
    D_ 1
    C_ 1
    octave 2
    B_ 1
    octave 3
    C_ 1
    D_ 4
    G_ 4
    rest 16
    rest 16
    rest 16
    F_ 2
    E_ 2
    D_ 1
    C_ 1
    octave 2
    B_ 1
    octave 3
    C_ 1
    D_ 4
    F_ 1
    G_ 1
    A_ 1
    B_ 1
    octave 4
    C_ 1
    rest 1
    C_ 1
    rest 1
    C_ 1
    octave 3
    B_ 1
    A_ 1
    B_ 1
    octave 4
    C_ 2
    D_ 2
    E_ 2
    C_ 2
    D_ 4
    C_ 4
    octave 3
    B_ 2
    A_ 2
    G_ 2
    B_ 2
    octave 4
    C_ 2
    rest 6
    G_ 1
    E_ 1
    F_ 1
    D_ 1
    E_ 1
    C_ 1
    D_ 1
    octave 3
    B_ 1
    octave 4
    C_ 4
    rest 12
    rest 12
    C_ 2
    octave 3
    B_ 2
    A_ 2
    G_ 2
    F_ 2
    G_ 2
    A_ 4
    B_ 2
    G_ 2
    octave 4
    C_ 1
    D_ 1
    E_ 1
    F_ 1
    G_ 8
    vibrato 8, 4, 6
    G_ 4
    vibrato 8, 2, 6
    D_ 1
    E_ 1
    F_ 1
    G_ 1
    A_ 8
    vibrato 8, 4, 6
    A_ 4
    vibrato 8, 2, 6
    E_ 1
    F_ 1
    G_ 1
    A_ 1
    B_ 4
    A_ 2
    B_ 2
    G_ 2
    B_ 2
    octave 5
    C_ 8
    octave 4
    B_ 8
    A_ 8
    G_ 8
    F_ 8
    E_ 8
    D_ 8
    G_ 8
    C_ 1
    rest 1
    C_ 1
    rest 1
    octave 3
    B_ 1
    rest 1
    B_ 1
    rest 1
    A_ 1
    G_ 1
    A_ 1
    B_ 2
    G_ 2
    octave 4
    C_ 1
    rest 1
    C_ 1
    D_ 1
    C_ 1
    octave 3
    B_ 1
    A_ 1
    G_ 1
    E_ 1
    F_ 1
    G_ 2
    C_ 2
    G_ 2
    A_ 1
    G_ 1
    F_ 1
    G_ 1
    A_ 2
    B_ 2
    A_ 2
    G_ 2
    F_ 2
    E_ 2
    D_ 1
    E_ 1
    F_ 2
    E_ 1
    F_ 1
    G_ 2
    F_ 1
    G_ 1
    A_ 2
    B_ 2
    octave 4
    D_ 2
    C_ 8
    D_ 8
    E_ 8
    F_ 8
    G_ 8
    F_ 4
    E_ 4
    D_ 8
    E_ 4
    F_ 4
    loopchannel 0, Music_FireFlower_Ch2_loop
Music_FireFlower_Ch3:
    dspeed 12
    rest 4
    rest 16
    rest 16
Music_FireFlowerMenu_Ch3:
    dspeed 12
    unknown0xf1
    rest 7
    unknown0xf1
    rest 8
    unknown0xf1
    rest 8
    unknown0xf1
    rest 4
    unknown0xf1
    rest 4
    unknown0xf1
    rest 4
    unknown0xf1
    rest 4
    unknown0xf1
    rest 4
    unknown0xf1
    rest 4
    unknown0xf1
    rest 4
    unknown0xf1
    rest 4
    unknown0xf1
    rest 4
    unknown0xf1
    rest 4
Music_FireFlower_Ch3_loop:
Music_FireFlower_Branch64f0:
    unknown0xf1
    rest 4
    unknown0xf1
    rest 4
    unknown0xf1
    rest 4
    unknown0xf1
    rest 4
    loopchannel 2, Music_FireFlower_Branch64f0
Music_FireFlower_Branch64fc:
    unknown0xf1
    rest 8
    unknown0xf1
    rest 8
    loopchannel 2, Music_FireFlower_Branch64fc
Music_FireFlower_Branch6504:
    unknown0xf1
    rest 4
    unknown0xf1
    rest 4
    unknown0xf1
    rest 4
    unknown0xf1
    rest 4
    loopchannel 2, Music_FireFlower_Branch6504
    unknown0xf1
    rest 8
    unknown0xf1
    rest 8
    unknown0xf1
    rest 8
    unknown0xf1
    rest 4
    unknown0xf1
    rest 4
    unknown0xf1
    rest 8
    unknown0xf1
    rest 8
    unknown0xf1
    rest 4
    unknown0xf1
    rest 4
    unknown0xf1
    rest 4
    unknown0xf1
    rest 4
    unknown0xf1
    rest 8
    unknown0xf1
    rest 8
    unknown0xf1
    rest 8
    unknown0xf1
    rest 2
    unknown0xf1
    rest 2
    unknown0xf1
    rest 2
    unknown0xf1
    rest 2
    unknown0xf1
    rest 4
    unknown0xf1
    rest 4
Music_FireFlower_Branch6536:
    unknown0xf1
    rest 4
    unknown0xf1
    rest 4
    unknown0xf1
    rest 4
    unknown0xf1
    rest 4
    loopchannel 4, Music_FireFlower_Branch6536
    unknown0xf1
    rest 8
    unknown0xf1
    rest 8
    unknown0xf1
    rest 8
    unknown0xf1
    rest 4
    unknown0xf1
    rest 4
    unknown0xf1
    rest 8
    unknown0xf1
    rest 4
    unknown0xf1
    rest 4
Music_FireFlower_Branch6552:
    unknown0xf1
    rest 8
    unknown0xf1
    rest 8
    loopchannel 4, Music_FireFlower_Branch6552
Music_FireFlower_Branch655a:
    unknown0xf1
    rest 2
    unknown0xf1
    rest 2
    unknown0xf1
    rest 2
    unknown0xf1
    rest 2
    unknown0xf1
    rest 2
    unknown0xf1
    rest 2
    unknown0xf1
    rest 2
    unknown0xf1
    rest 2
    loopchannel 4, Music_FireFlower_Branch655a
Music_FireFlower_Branch656e:
    unknown0xf1
    rest 8
    unknown0xf1
    rest 8
    loopchannel 2, Music_FireFlower_Branch656e
    unknown0xf1
    rest 8
    unknown0xf1
    rest 4
    unknown0xf1
    rest 4
    unknown0xf1
    rest 8
    unknown0xf1
    rest 4
    unknown0xf1
    rest 4
    loopchannel 0, Music_FireFlower_Ch3_loop