Music_GameOver_Ch0:
    tempo 144
    volume $77
    duty 3
    toggleperfectpitch
    vibrato 5, 2, 5
    notetype 12, 11, 1
    octave 3
    G_ 1
    F_ 1
    E_ 1
    D_ 1
    C_ 2
    octave 2
    B_ 2
    A_ 2
    octave 3
    E_ 2
    octave 2
    G_ 2
    octave 3
    D_ 2
    C_ 2
    octave 2
    B_ 2
    A_ 2
    G_ 2
    E_ 4
    octave 1
    G_ 4
    endchannel
Music_GameOver_Ch1:
    duty 2
    vibrato 6, 2, 6
    notetype 12, 12, 2
    octave 4
    C_ 2
    octave 3
    B_ 2
    A_ 2
    G_ 2
    E_ 1
    F_ 1
    G_ 2
    D_ 1
    E_ 1
    F_ 2
    E_ 2
    D_ 2
    C_ 2
    octave 2
    B_ 2
    octave 3
    C_ 4
    notetype 12, 11, 1
    octave 2
    C_ 4
    endchannel
Music_GameOver_Ch2:
    notetype 12, 1, 0
    rest 16
    octave 2
    A_ 1
    B_ 1
    octave 3
    C_ 2
    C_ 1
    D_ 1
    E_ 2
    C_ 2
    rest 2
    octave 2
    C_ 2
    rest 2
    endchannel