Music_Starman_Ch0:
    tempo 128
    volume $77
    duty 2
    vibrato 7, 2, 3
    toggleperfectpitch
    notetype 12, 11, 2
    octave 4
    E_ 1
    F# 1
    E_ 1
    F# 1
    E_ 1
    F# 1
    E_ 1
    F# 1
    E_ 2
    octave 3
    B_ 2
    octave 4
    C# 2
    D# 2
    octave 3
    B_ 3
    octave 4
    C# 1
    D# 2
    octave 3
    B_ 2
    octave 4
    E_ 4
    E_ 4
Music_StarmanMenu_Ch0:
    tempo 128
    volume $77
    duty 2
    vibrato 7, 2, 3
    toggleperfectpitch
Music_Starman_Ch0_loop:
    notetype 12, 11, 2
    octave 3
    G# 2
    G# 4
    B_ 2
    octave 4
    E_ 4
    D# 3
    C# 1
    octave 3
    B_ 2
    F# 4
    octave 4
    A_ 2
    F# 2
    octave 5
    E_ 2
    D# 4
    octave 3
    B_ 2
    B_ 4
    F# 2
    A_ 4
    F# 3
    A_ 1
    G# 4
    A_ 4
    B_ 2
    A_ 2
    G# 2
    F# 2
    G# 2
    E_ 4
    B_ 2
    octave 4
    E_ 4
    D# 3
    C# 1
    octave 3
    B_ 2
    F# 4
    octave 4
    A_ 2
    F# 2
    octave 5
    E_ 2
    D# 4
    octave 3
    B_ 2
    B_ 4
    F# 2
    A_ 4
    F# 3
    A_ 1
    B_ 4
    A_ 4
    G# 4
    G# 4
    rest 2
    G# 4
    G# 4
    G# 4
    G# 2
    rest 2
    A_ 4
    A_ 4
    A_ 1
    A_ 3
    A_ 2
    rest 2
    A_ 4
    A_ 2
    B_ 2
    A_ 2
    G# 2
    F# 4
    G# 1
    G# 3
    A_ 2
    B_ 2
    octave 4
    C# 2
    C# 2
    octave 3
    B_ 2
    E_ 4
    octave 4
    C# 6
    C# 4
    C# 2
    octave 3
    D# 4
    octave 4
    D# 6
    D# 4
    D# 2
    rest 2
    E_ 4
    E_ 3
    D# 1
    E_ 2
    F# 2
    E_ 2
    F# 16
    notetype 12, 9, 2
    rest 2
    octave 3
    E_ 4
    E_ 4
    E_ 4
    E_ 2
    F# 2
    F# 4
    F# 4
    F# 4
    F# 2
    G# 2
    G# 4
    G# 4
    G# 4
    G# 2
    F# 16
    E_ 2
    E_ 4
    E_ 4
    E_ 4
    E_ 2
    F# 2
    F# 4
    F# 4
    F# 4
    F# 2
    G# 2
    G# 4
    G# 4
    G# 4
    G# 2
    B_ 2
    B_ 4
    octave 4
    D# 6
    notetype 6, 11, 3
    octave 3
    B_ 1
    octave 4
    C# 1
    D_ 1
    D# 1
    E_ 1
    F_ 1
    F# 1
    G_ 1
    notetype 12, 11, 3
    G# 8
    F# 8
    E_ 8
    F# 8
    G# 4
    F# 4
    G# 4
    F# 4
    E_ 4
    F# 4
    G# 4
    F# 4
    G# 4
    F# 4
    G# 4
    F# 4
    E_ 4
    F# 4
    G# 4
    F# 4
    E_ 2
    octave 3
    B_ 4
    octave 4
    E_ 2
    G# 4
    F# 4
    E_ 2
    F# 4
    E_ 2
    D# 4
    E_ 4
    notetype 12, 11, 5
    octave 3
    A_ 8
    E_ 8
    octave 4
    D# 8
    octave 3
    F# 8
    notetype 12, 8, 3
    rest 16
    rest 16
    rest 16
    rest 16
    rest 2
    B_ 6
    G# 4
    F# 4
    rest 2
    A_ 6
    F# 4
    A_ 4
    rest 2
    G# 6
    E_ 4
    F# 4
    rest 2
    F# 6
    F# 4
    G# 4
    notetype 12, 11, 3
    rest 16
    rest 16
    rest 16
    rest 16
    rest 2
    B_ 6
    B_ 4
    B_ 4
    rest 2
    octave 4
    C# 6
    C# 4
    C# 4
    rest 2
    E_ 6
    E_ 4
    E_ 4
    D# 6
    D# 2
    D# 4
    D# 4
    octave 3
    B_ 2
    octave 4
    D# 2
    C# 2
    octave 3
    B_ 2
    octave 4
    D# 2
    C# 2
    D# 2
    E_ 2
    E_ 2
    D# 2
    C# 2
    D# 2
    E_ 2
    D# 2
    C# 2
    D# 2
    F# 2
    E_ 2
    D# 2
    E_ 2
    F# 2
    E_ 2
    F# 2
    G# 2
    B_ 2
    A_ 2
    G# 2
    F# 4
    G# 2
    G# 4
    rest 8
    octave 4
    E_ 4
    D# 4
    C# 4
    octave 3
    B_ 4
    A_ 4
    G# 4
    octave 4
    E_ 4
    D# 4
    C# 4
    octave 3
    B_ 4
    A_ 4
    G# 4
    F# 4
    D# 4
    loopchannel 0, Music_Starman_Ch0_loop
Music_Starman_Ch1:
    duty 2
    vibrato 6, 2, 4
    notetype 12, 12, 2
    octave 4
    B_ 6
    octave 5
    C# 2
    octave 4
    B_ 2
    A_ 2
    G# 2
    F# 2
    E_ 2
    F# 2
    G# 2
    F# 2
    B_ 4
    B_ 4
Music_StarmanMenu_Ch1:
    duty 2
    vibrato 6, 2, 4
    notetype 12, 12, 2
Music_Starman_Ch1_loop:
    notetype 12, 12, 2
    octave 4
    E_ 2
    octave 3
    B_ 4
    octave 4
    E_ 2
    G# 4
    F# 3
    E_ 1
    D# 2
    octave 3
    B_ 4
    octave 5
    C# 2
    octave 4
    B_ 2
    octave 5
    G# 2
    F# 4
    octave 4
    D# 2
    F# 4
    octave 3
    B_ 2
    octave 4
    C# 4
    D# 3
    F# 1
    E_ 6
    F# 2
    G# 8
    E_ 2
    octave 3
    B_ 4
    octave 4
    E_ 2
    G# 4
    F# 3
    E_ 1
    D# 2
    octave 3
    B_ 4
    octave 5
    C# 2
    octave 4
    B_ 2
    octave 5
    G# 2
    F# 4
    octave 4
    D# 2
    F# 4
    octave 3
    B_ 2
    octave 4
    C# 4
    D# 3
    F# 1
    E_ 6
    octave 3
    B_ 2
    octave 4
    E_ 2
    duty 1
    notetype 12, 12, 3
    octave 2
    B_ 2
    octave 3
    C# 2
    D# 2
    E_ 6
    D# 2
    C# 4
    E_ 4
    D# 6
    E_ 2
    F# 8
    D# 4
    F# 4
    D# 2
    octave 2
    B_ 2
    octave 3
    C# 2
    D# 2
    E_ 6
    F# 2
    G# 8
    A_ 4
    C# 3
    E_ 1
    A_ 8
    G# 4
    octave 2
    B_ 3
    octave 3
    E_ 1
    G# 8
    F# 3
    F_ 1
    F# 2
    G# 2
    A_ 2
    G# 2
    A_ 2
    octave 4
    C# 2
    octave 3
    B_ 4
    duty 2
    notetype 6, 11, 1
    B_ 2
    A_ 1
    G# 1
    F# 1
    E_ 1
    D# 1
    C# 1
    octave 2
    B_ 8
    notetype 12, 10, 2
    octave 3
    B_ 3
    A_ 1
    G# 6
    G# 4
    G# 4
    G# 2
    A_ 6
    A_ 4
    A_ 2
    B_ 2
    A_ 2
    B_ 2
    B_ 4
    B_ 4
    B_ 4
    B_ 2
    octave 4
    D# 16
    rest 2
    octave 3
    G# 4
    G# 4
    G# 2
    A_ 2
    G# 2
    rest 2
    A_ 4
    A_ 4
    A_ 2
    B_ 2
    A_ 2
    rest 2
    B_ 4
    B_ 4
    B_ 2
    octave 4
    C# 2
    octave 3
    B_ 2
    octave 4
    D# 2
    D# 2
    F# 2
    F# 10
    notetype 12, 10, 3
    octave 5
    E_ 4
    E_ 1
    octave 4
    B_ 2
    octave 5
    D# 4
    D# 1
    octave 4
    B_ 2
    octave 5
    C# 4
    C# 1
    octave 4
    B_ 2
    octave 5
    D# 4
    D# 1
    octave 4
    B_ 2
    octave 5
    E_ 4
    E_ 1
    octave 4
    B_ 2
    octave 5
    D# 4
    D# 1
    octave 4
    B_ 2
    octave 5
    C# 4
    C# 1
    octave 4
    B_ 2
    octave 5
    D# 4
    D# 1
    octave 4
    B_ 2
    octave 5
    E_ 4
    E_ 1
    octave 4
    B_ 2
    octave 5
    D# 4
    D# 1
    octave 4
    B_ 2
    octave 5
    C# 4
    C# 1
    octave 4
    B_ 2
    octave 5
    D# 4
    D# 1
    octave 4
    B_ 2
    octave 5
    E_ 4
    E_ 1
    octave 4
    B_ 2
    octave 5
    D# 4
    D# 1
    octave 4
    B_ 2
    octave 5
    C# 4
    C# 1
    octave 4
    B_ 2
    octave 5
    D# 4
    D# 1
    octave 4
    B_ 2
    notetype 12, 12, 5
    C# 8
    C# 8
    octave 3
    B_ 8
    B_ 8
    notetype 12, 12, 3
    octave 4
    E_ 6
    D# 2
    C# 2
    octave 3
    B_ 2
    octave 4
    C# 2
    octave 3
    A_ 2
    octave 4
    D# 6
    C# 2
    octave 3
    B_ 2
    octave 4
    C# 2
    D# 2
    F# 2
    E_ 2
    D# 2
    C# 2
    octave 3
    B_ 2
    A_ 2
    G# 2
    A_ 2
    octave 4
    C# 2
    octave 3
    B_ 4
    octave 4
    C# 4
    D# 2
    C# 2
    D# 2
    octave 3
    B_ 2
    octave 4
    E_ 6
    D# 2
    C# 2
    octave 3
    B_ 2
    octave 4
    C# 2
    octave 3
    A_ 2
    octave 4
    D# 6
    C# 2
    octave 3
    B_ 2
    octave 4
    C# 2
    D# 2
    F# 2
    E_ 2
    D# 2
    C# 2
    octave 3
    B_ 2
    A_ 2
    G# 2
    A_ 2
    octave 4
    C# 2
    octave 3
    B_ 4
    octave 4
    C# 4
    D# 2
    C# 2
    D# 2
    octave 3
    B_ 2
    octave 4
    E_ 6
    D# 2
    C# 2
    octave 3
    B_ 2
    octave 4
    C# 2
    octave 3
    A_ 2
    octave 4
    D# 6
    C# 2
    octave 3
    B_ 2
    octave 4
    C# 2
    D# 2
    F# 2
    E_ 2
    D# 2
    C# 2
    octave 3
    B_ 2
    A_ 2
    G# 2
    A_ 2
    octave 4
    C# 2
    G# 4
    F# 4
    G# 2
    F# 2
    E_ 2
    D# 2
    rest 2
    G# 6
    G# 4
    G# 4
    rest 2
    A_ 6
    A_ 4
    A_ 4
    rest 2
    B_ 6
    B_ 4
    B_ 4
    F# 6
    F# 2
    A_ 4
    octave 5
    C# 4
    octave 4
    G# 6
    G# 6
    G# 4
    A_ 6
    A_ 6
    A_ 4
    B_ 6
    B_ 6
    B_ 4
    octave 5
    D# 2
    C# 2
    D# 2
    F# 4
    octave 4
    B_ 2
    octave 5
    E_ 2
    octave 4
    C# 1
    D# 1
    E_ 4
    D# 4
    C# 4
    octave 3
    B_ 4
    A_ 4
    G# 4
    F# 4
    E_ 4
    octave 4
    E_ 4
    D# 4
    C# 4
    octave 3
    B_ 4
    A_ 4
    G# 4
    F# 4
    B_ 4
    loopchannel 0, Music_Starman_Ch1_loop
Music_Starman_Ch2:
    notetype 12, 1, 0
    rest 16
    rest 10
    octave 3
    B_ 1
    rest 1
    octave 4
    C# 1
    rest 1
    D# 1
    rest 1
Music_StarmanMenu_Ch2:
    notetype 12, 1, 0
    octave 4
Music_Starman_Ch2_loop:
    E_ 1
    rest 1
    E_ 1
    rest 1
    octave 3
    B_ 1
    rest 1
    octave 4
    G# 1
    rest 1
    E_ 1
    rest 1
    B_ 1
    rest 1
    octave 3
    B_ 1
    rest 1
    octave 4
    F# 1
    rest 1
    D# 1
    rest 1
    octave 3
    B_ 1
    rest 5
    pitchbend 0, 107
    B_ 1
    rest 3
    pitchbend 0, 107
    B_ 1
    rest 3
    octave 4
    D# 1
    rest 1
    F# 1
    rest 1
    octave 3
    B_ 1
    rest 1
    octave 4
    D# 1
    rest 1
    C# 1
    rest 1
    D# 1
    rest 1
    D# 1
    rest 1
    octave 3
    B_ 1
    rest 1
    octave 4
    E_ 1
    rest 1
    E_ 1
    rest 1
    octave 3
    B_ 1
    rest 1
    octave 4
    E_ 1
    D# 1
    E_ 1
    rest 1
    F# 1
    rest 1
    octave 3
    B_ 1
    rest 1
    octave 4
    D# 1
    rest 1
    E_ 1
    rest 1
    octave 3
    B_ 1
    rest 1
    B_ 1
    rest 1
    octave 4
    G# 1
    rest 1
    E_ 1
    rest 1
    B_ 1
    rest 1
    E_ 1
    F_ 1
    F# 1
    E_ 1
    D# 1
    rest 1
    D# 1
    rest 5
    octave 3
    pitchbend 0, 107
    B_ 1
    rest 3
    pitchbend 0, 107
    B_ 1
    rest 3
    octave 4
    D# 1
    rest 1
    F# 1
    rest 1
    octave 3
    B_ 1
    rest 1
    octave 4
    D# 1
    rest 1
    C# 1
    rest 1
    D# 1
    rest 3
    D# 1
    rest 1
    E_ 1
    rest 3
    octave 3
    B_ 1
    rest 3
    octave 4
    E_ 1
    rest 3
    E_ 1
    rest 3
    octave 3
    G# 1
    rest 1
    B_ 1
    rest 1
    G# 1
    rest 1
    B_ 1
    rest 1
    G# 1
    rest 1
    B_ 1
    rest 1
    G# 1
    rest 1
    B_ 1
    rest 1
    A_ 1
    rest 1
    octave 4
    C# 1
    rest 1
    octave 3
    A_ 1
    G# 1
    F# 1
    G# 1
    A_ 1
    rest 1
    octave 4
    C# 1
    rest 1
    octave 3
    A_ 1
    rest 1
    octave 4
    C# 1
    rest 1
    octave 3
    A_ 1
    rest 1
    octave 4
    C# 1
    rest 1
    octave 3
    A_ 1
    rest 1
    octave 4
    C# 1
    rest 1
    octave 3
    A_ 1
    rest 1
    F# 1
    rest 1
    F# 1
    rest 1
    A_ 1
    rest 1
    G# 1
    rest 1
    B_ 1
    rest 1
    G# 1
    rest 1
    B_ 1
    rest 1
    G# 1
    A_ 1
    B_ 1
    A_ 1
    G# 1
    rest 1
    B_ 1
    rest 7
    A_ 1
    octave 4
    C# 1
    octave 3
    A_ 1
    rest 1
    octave 4
    E_ 1
    rest 1
    octave 3
    A_ 1
    rest 1
    octave 4
    E_ 1
    rest 7
    octave 3
    G# 1
    B_ 1
    octave 4
    D# 1
    rest 1
    B_ 1
    rest 1
    D# 1
    rest 1
    B_ 1
    rest 1
    octave 3
    A_ 1
    rest 1
    octave 4
    C# 1
    rest 1
    octave 3
    A_ 1
    rest 1
    octave 4
    C# 1
    rest 1
    octave 3
    A_ 1
    rest 1
    octave 4
    C# 1
    rest 1
    octave 3
    A_ 1
    rest 1
    octave 4
    C# 1
    rest 1
    D# 1
    rest 14
    notetype 12, 1, 1
    octave 5
    E_ 1
    rest 1
    octave 4
    B_ 1
    rest 3
    octave 5
    E_ 1
    rest 1
    G# 1
    rest 1
    A_ 1
    rest 3
    G# 1
    rest 1
    F# 1
    rest 1
    C# 1
    rest 3
    F# 1
    rest 1
    A_ 1
    rest 1
    B_ 1
    rest 3
    A_ 1
    rest 1
    G# 1
    rest 1
    A_ 1
    rest 3
    B_ 1
    rest 1
    octave 6
    C# 1
    rest 1
    octave 5
    B_ 1
    rest 3
    octave 6
    C# 1
    rest 1
    octave 5
    A_ 1
    rest 1
    G# 1
    rest 1
    F# 1
    rest 1
    E_ 1
    rest 1
    D# 1
    rest 1
    E_ 1
    rest 1
    F# 1
    rest 1
    D# 1
    rest 1
    E_ 1
    rest 1
    octave 4
    B_ 1
    rest 3
    octave 5
    E_ 1
    rest 1
    G# 1
    rest 1
    A_ 1
    rest 3
    G# 1
    rest 1
    F# 1
    rest 1
    C# 1
    rest 3
    F# 1
    rest 1
    A_ 1
    rest 1
    B_ 1
    rest 3
    A_ 1
    rest 1
    G# 1
    rest 1
    A_ 1
    rest 3
    B_ 1
    rest 1
    octave 6
    C# 1
    rest 1
    octave 5
    B_ 1
    rest 3
    octave 6
    C# 1
    rest 1
    D# 1
    rest 1
    C# 1
    rest 1
    D# 1
    rest 1
    octave 5
    B_ 1
    rest 9
    notetype 12, 1, 0
    octave 4
    G# 8
    B_ 8
    A_ 8
    octave 5
    D# 8
    octave 4
    G# 8
    B_ 8
    A_ 8
    octave 5
    D# 8
    octave 4
    G# 4
    B_ 4
    E_ 4
    B_ 4
    A_ 2
    G# 2
    F# 2
    E_ 2
    D# 2
    E_ 2
    F# 2
    D# 2
    G# 2
    F# 2
    E_ 2
    G# 2
    B_ 2
    A_ 2
    G# 2
    F# 2
    E_ 2
    F# 2
    G# 2
    A_ 2
    B_ 2
    A_ 2
    G# 2
    F# 2
    rest 4
    octave 3
    E_ 1
    F# 1
    G# 1
    A_ 1
    B_ 1
    octave 4
    C# 1
    D_ 1
    D# 1
    E_ 1
    rest 7
    octave 3
    F# 1
    G# 1
    A_ 1
    B_ 1
    octave 4
    C# 1
    D# 1
    E_ 1
    F_ 1
    F# 1
    rest 5
    G# 4
    rest 2
    G# 4
    E_ 4
    rest 2
    F# 4
    rest 2
    F# 4
    D# 4
    rest 2
    E_ 4
    rest 2
    E_ 4
    C# 4
    rest 2
    D# 4
    rest 2
    D# 4
    F# 4
    rest 2
    G# 4
    rest 2
    E_ 4
    E_ 4
    rest 2
    F# 4
    rest 2
    D# 4
    F# 4
    rest 2
    E_ 4
    rest 2
    C# 4
    E_ 4
    rest 2
    D# 4
    rest 2
    D# 4
    D# 4
    E_ 2
    G# 4
    B_ 2
    G# 4
    E_ 4
    D# 2
    F# 4
    A_ 2
    F# 4
    D# 4
    C# 2
    E_ 4
    G# 2
    E_ 4
    C# 4
    D# 2
    F# 4
    octave 5
    C# 2
    octave 4
    B_ 4
    A_ 4
    E_ 2
    octave 3
    B_ 4
    octave 4
    E_ 2
    G# 4
    F# 3
    E_ 1
    F# 2
    C# 4
    F# 2
    A_ 4
    G# 3
    F# 1
    G# 2
    A_ 4
    B_ 2
    octave 5
    C# 2
    octave 4
    B_ 4
    octave 5
    C# 2
    octave 4
    C# 2
    D# 4
    E_ 2
    F# 4
    D# 4
    E_ 2
    octave 3
    B_ 4
    octave 4
    E_ 2
    G# 4
    F# 3
    E_ 1
    F# 2
    C# 4
    F# 2
    A_ 4
    G# 3
    F# 1
    G# 2
    A_ 4
    B_ 2
    octave 5
    C# 2
    octave 4
    B_ 4
    octave 5
    C# 2
    D# 2
    C# 2
    D# 2
    octave 4
    B_ 2
    rest 2
    octave 5
    E_ 1
    rest 1
    E_ 1
    rest 16
    rest 3
    octave 3
    E_ 4
    D# 4
    C# 4
    octave 2
    B_ 4
    octave 4
    G# 4
    F# 4
    E_ 4
    D# 4
    C# 4
    octave 3
    B_ 4
    rest 2
    B_ 1
    rest 1
    octave 4
    C# 1
    rest 1
    D# 1
    rest 1
    loopchannel 0, Music_Starman_Ch2_loop
Music_Starman_Ch3:
    dspeed 12
    rest 16
    rest 16
Music_StarmanMenu_Ch3:
    dspeed 12
    unknown0xf1
    rest 1
    unknown0xf1
    rest 2
    unknown0xf1
    rest 2
    unknown0xf1
    rest 2
    unknown0xf1
    rest 2
    unknown0xf1
    rest 2
    unknown0xf1
    rest 2
    unknown0xf1
    rest 2
Music_Starman_Ch3_loop:
    unknown0xf1
    rest 2
    unknown0xf1
    rest 2
    rest 2
    dspeed 6
    unknown0xf1
    rest 1
    unknown0xf1
    rest 3
    unknown0xf1
    rest 1
    unknown0xf1
    rest 3
    unknown0xf1
    rest 1
    unknown0xf1
    rest 3
    unknown0xf1
    rest 1
    unknown0xf1
    rest 3
    dspeed 12
    rest 2
Music_Starman_Branch6b42:
    unknown0xf1
    rest 2
    unknown0xf1
    rest 2
    unknown0xf1
    rest 2
    unknown0xf1
    rest 2
    unknown0xf1
    rest 2
    unknown0xf1
    rest 2
    unknown0xf1
    rest 2
    unknown0xf1
    rest 2
    loopchannel 2, Music_Starman_Branch6b42
    unknown0xf1
    rest 2
    unknown0xf1
    rest 2
    unknown0xf1
    rest 2
    unknown0xf1
    rest 2
    unknown0xf1
    rest 2
    unknown0xf1
    rest 2
    unknown0xf1
    rest 2
    unknown0xf1
    rest 2
    unknown0xf1
    rest 2
    unknown0xf1
    rest 2
    rest 2
    dspeed 6
    unknown0xf1
    rest 1
    unknown0xf1
    rest 3
    unknown0xf1
    rest 1
    unknown0xf1
    rest 3
    unknown0xf1
    rest 1
    unknown0xf1
    rest 3
    unknown0xf1
    rest 1
    unknown0xf1
    rest 3
    dspeed 12
    rest 2
    unknown0xf1
    rest 2
    unknown0xf1
    rest 2
    unknown0xf1
    rest 2
    unknown0xf1
    rest 2
    unknown0xf1
    rest 2
    unknown0xf1
    rest 2
    unknown0xf1
    rest 2
    unknown0xf1
    rest 2
    unknown0xf1
    rest 4
    unknown0xf1
    rest 4
    unknown0xf1
    rest 4
    unknown0xf1
    rest 2
    unknown0xf1
    rest 2
Music_Starman_Branch6b98:
    unknown0xf1
    rest 2
    unknown0xf1
    rest 2
    unknown0xf1
    rest 2
    unknown0xf1
    rest 2
    unknown0xf1
    rest 2
    unknown0xf1
    rest 2
    unknown0xf1
    rest 2
    unknown0xf1
    rest 2
    loopchannel 4, Music_Starman_Branch6b98
Music_Starman_Branch6bac:
    unknown0xf1
    rest 8
    unknown0xf1
    rest 2
    unknown0xf1
    rest 2
    unknown0xf1
    rest 2
    unknown0xf1
    rest 2
    loopchannel 2, Music_Starman_Branch6bac
    unknown0xf1
    rest 2
    unknown0xf1
    rest 2
    unknown0xf1
    rest 2
    unknown0xf1
    rest 2
    unknown0xf1
    rest 2
    unknown0xf1
    rest 2
    unknown0xf1
    rest 2
    unknown0xf1
    rest 2
    unknown0xf1
    rest 16
Music_Starman_Branch6bcc
    unknown0xf1
    rest 4
    unknown0xf1
    rest 4
    unknown0xf1
    rest 4
    unknown0xf1
    rest 4
    loopchannel 3, Music_Starman_Branch6bcc
    unknown0xf1
    rest 16
Music_Starman_Branch6bda:
    unknown0xf1
    rest 4
    unknown0xf1
    rest 4
    unknown0xf1
    rest 4
    unknown0xf1
    rest 4
    loopchannel 3, Music_Starman_Branch6bda
    unknown0xf1
    rest 2
    unknown0xf1
    rest 2
    unknown0xf1
    rest 2
    unknown0xf1
    rest 2
    rest 8
Music_Starman_Branch6bef:
    unknown0xf1
    rest 4
    unknown0xf1
    rest 4
    unknown0xf1
    rest 4
    unknown0xf1
    rest 4
    loopchannel 2, Music_Starman_Branch6bef
Music_Starman_Branch6bfb:
    unknown0xf1
    rest 2
    unknown0xf1
    rest 2
    unknown0xf1
    rest 2
    unknown0xf1
    rest 2
    unknown0xf1
    rest 2
    unknown0xf1
    rest 2
    unknown0xf1
    rest 2
    unknown0xf1
    rest 2
    loopchannel 6, Music_Starman_Branch6bfb
Music_Starman_Branch6c0f:
    unknown0xf1
    rest 4
    unknown0xf1
    rest 4
    unknown0xf1
    rest 4
    unknown0xf1
    rest 4
    loopchannel 2, Music_Starman_Branch6c0f
Music_Starman_Branch6c1b:
    unknown0xf1
    rest 4
    unknown0xf1
    rest 4
    unknown0xf1
    rest 4
    unknown0xf1
    rest 4
    loopchannel 2, Music_Starman_Branch6c1b
Music_Starman_Branch6c27:
    unknown0xf1
    rest 2
    unknown0xf1
    rest 2
    unknown0xf1
    rest 2
    unknown0xf1
    rest 2
    unknown0xf1
    rest 2
    unknown0xf1
    rest 2
    unknown0xf1
    rest 2
    unknown0xf1
    rest 2
    loopchannel 2, Music_Starman_Branch6c27
Music_Starman_Branch6c3b:
    unknown0xf1
    rest 4
    unknown0xf1
    rest 4
    unknown0xf1
    rest 4
    unknown0xf1
    rest 4
    loopchannel 2, Music_Starman_Branch6c3b
Music_Starman_Branch6c47:
    unknown0xf1
    rest 2
    unknown0xf1
    rest 2
    unknown0xf1
    rest 2
    unknown0xf1
    rest 2
    unknown0xf1
    rest 2
    unknown0xf1
    rest 2
    unknown0xf1
    rest 2
    unknown0xf1
    rest 2
    loopchannel 2, Music_Starman_Branch6c47
Music_Starman_Branch6c5b:
    unknown0xf1
    rest 4
    unknown0xf1
    rest 4
    unknown0xf1
    rest 4
    unknown0xf1
    rest 4
    loopchannel 2, Music_Starman_Branch6c5b
Music_Starman_Branch6c67:
    unknown0xf1
    rest 2
    unknown0xf1
    rest 2
    unknown0xf1
    rest 2
    unknown0xf1
    rest 2
    unknown0xf1
    rest 2
    unknown0xf1
    rest 2
    unknown0xf1
    rest 2
    unknown0xf1
    rest 2
    loopchannel 2, Music_Starman_Branch6c67
Music_Starman_Branch6c7b:
    unknown0xf1
    rest 2
    unknown0xf1
    rest 2
    unknown0xf1
    rest 2
    unknown0xf1
    rest 2
    unknown0xf1
    rest 2
    unknown0xf1
    rest 2
    unknown0xf1
    rest 2
    unknown0xf1
    rest 2
    loopchannel 7, Music_Starman_Branch6c7b
    unknown0xf1
    rest 2
    unknown0xf1
    rest 2
    unknown0xf1
    rest 2
    unknown0xf1
    rest 4
    unknown0xf1
    rest 2
    unknown0xf1
    rest 4
Music_Starman_Branch6c9b:
    unknown0xf1
    rest 4
    unknown0xf1
    rest 4
    unknown0xf1
    rest 4
    unknown0xf1
    rest 4
    loopchannel 3, Music_Starman_Branch6c9b
    unknown0xf1
    rest 4
    unknown0xf1
    rest 4
    unknown0xf1
    rest 4
    rest 1
    unknown0xf1
    rest 1
    unknown0xf1
    rest 1
    unknown0xf1
    rest 1
    unknown0xf1
    rest 2
    unknown0xf1
    rest 2
    unknown0xf1
    rest 2
    unknown0xf1
    rest 2
    unknown0xf1
    rest 2
    unknown0xf1
    rest 2
    unknown0xf1
    rest 2
    unknown0xf1
    rest 2
    loopchannel 0, Music_Starman_Ch3_loop