Music_TitleScreen_Ch0::
    tempo 109
    volume 7, 7
    duty 2
    notetype 6, 11, 1
    octave 2
    A# 3
    octave 3
    D_ 3
    F_ 2
    octave 2
    A# 3
    octave 3
    D_ 3
    F_ 2
    D# 3
    G_ 3
    A# 2
    D# 3
    G_ 3
    A# 2
    A_ 2
    F_ 4
    A_ 2
    octave 4
    C_ 4
    octave 3
    A_ 4
    A# 1
    A_ 1
    A# 1
    F_ 1
    G_ 1
    F_ 1
    D_ 1
    F_ 1
    octave 2
    A# 4
    octave 3
    A# 4
Music_TitleScreen_Ch0_Loop::
    notetype 12, 11, 3
    octave 2
    A# 3
    octave 3
    D_ 3
    F_ 2
    octave 2
    A# 3
    octave 3
    D_ 3
    F_ 2
    D# 3
    G_ 3
    A# 2
    D# 3
    D_ 1
    D# 1
    D_ 1
    D_ 1
    D# 1
    C_ 3
    D_ 3
    D# 2
    C_ 3
    D_ 3
    D# 2
    A# 2
    F_ 2
    octave 4
    C_ 2
    octave 3
    D# 2
    octave 4
    C# 2
    octave 3
    D_ 2
    octave 4
    D_ 2
    octave 3
    C_ 2
    octave 2
    A# 3
    octave 3
    D_ 3
    F_ 2
    octave 2
    A# 3
    octave 3
    D_ 3
    F_ 2
    D# 3
    G_ 3
    A# 2
    D# 3
    G_ 3
    A# 2
    F_ 3
    F_ 3
    A# 2
    F_ 3
    A_ 3
    octave 4
    C_ 2
    D_ 3
    octave 3
    A# 3
    F_ 2
    octave 4
    F_ 2
    D# 2
    D_ 2
    C_ 2
    octave 3
    G_ 2
    octave 2
    A# 2
    octave 3
    D# 2
    F_ 2
    G_ 2
    D# 2
    A# 2
    G_ 2
    F_ 2
    octave 2
    A# 2
    octave 3
    D_ 2
    D# 2
    F_ 2
    D_ 2
    G_ 2
    F_ 2
    F_ 2
    octave 2
    A_ 2
    octave 3
    C_ 2
    D_ 2
    D# 2
    C_ 2
    G_ 2
    D# 2
    F_ 2
    D# 2
    D_ 2
    C_ 2
    D_ 2
    F_ 2
    octave 2
    A# 2
    octave 3
    F_ 2
    G_ 2
    octave 2
    A# 2
    octave 3
    D# 2
    F_ 2
    G_ 2
    D# 2
    A# 2
    G_ 2
    F_ 2
    octave 2
    A# 2
    octave 3
    D_ 2
    D# 2
    F_ 2
    G_ 2
    A_ 2
    B_ 2
    octave 4
    C_ 2
    octave 3
    F_ 2
    G_ 2
    A_ 2
    F_ 2
    G_ 2
    A_ 2
    octave 4
    C_ 2
    octave 3
    A# 2
    A_ 2
    G_ 2
    A_ 2
    notetype 12, 11, 1
    A# 8
    loopchannel

Music_TitleScreen_Ch1::
    duty 2
    vibrato 8, 1, 7
    notetype 3, 12, 1
    octave 4
    D_ 4
    D_ 4
    C_ 4
    C_ 4
    octave 3
    A# 4
    octave 4
    C_ 4
    D_ 4
    octave 3
    A# 2
    octave 4
    D_ 1
    F_ 1
    G_ 4
    G_ 4
    F_ 4
    F_ 4
    G_ 4
    F_ 4
    D# 4
    D_ 4
    C_ 4
    C_ 4
    D_ 4
    D_ 4
    D# 4
    D# 4
    G_ 4
    D# 4
    F_ 8
    D# 8
    D_ 8
    A# 8
Music_TitleScreen_Ch1_Loop::
    notetype 6, 11, 3
    F_ 1
    G_ 2
    F_ 3
    D_ 2
    A# 2
    A_ 2
    A# 2
    A_ 2
    G_ 2
    D# 14
    C_ 1
    D# 2
    C_ 3
    octave 3
    A_ 2
    octave 4
    G_ 2
    F_ 2
    G_ 2
    F_ 2
    D_ 4
    D# 4
    E_ 4
    F_ 4
    F_ 1
    G_ 2
    F_ 3
    D_ 2
    A# 2
    A_ 2
    A# 2
    A_ 2
    G_ 3
    A# 11
    notetype 3, 11, 1
    F_ 1
    G_ 1
    A_ 1
    A# 1
    notetype 6, 11, 3
    octave 5
    C_ 2
    C_ 2
    octave 4
    A# 2
    A# 2
    A_ 2
    octave 5
    D_ 2
    C_ 2
    octave 4
    A_ 2
    notetype 12, 10, 7
    A# 4
    notetype 12, 3, 0
    A# 4
    notetype 6, 11, 7
    G_ 4
    D# 6
    G_ 2
    F_ 2
    G_ 2
    F_ 4
    A# 6
    A# 2
    A_ 2
    A# 2
    A_ 4
    F_ 4
    octave 5
    C_ 4
    octave 4
    A_ 4
    A# 4
    octave 5
    C_ 4
    D_ 2
    C_ 2
    octave 4
    A# 2
    A_ 2
    G_ 4
    D# 6
    A# 2
    A_ 2
    A# 2
    octave 5
    D_ 4
    C_ 4
    octave 4
    B_ 4
    F# 2
    G_ 2
    octave 5
    C_ 4
    octave 4
    A# 4
    A_ 2
    octave 5
    D_ 2
    C_ 2
    octave 4
    A_ 2
    notetype 12, 11, 3
    A# 2
    A# 2
    notetype 12, 11, 1
    A# 4
    loopchannel

Music_TitleScreen_Ch2::
    toggleperfectpitch
    notetype 3, 1, 2
    pitchbend 1, 22
    octave 4
    G# 1
    rest 3
    octave 5
    E_ 1
    rest 1
    octave 4
    G# 1
    rest 5
    G# 1
    rest 1
    octave 5
    E_ 1
    rest 1
    octave 4
    G# 1
    rest 3
    octave 5
    E_ 1
    rest 1
    octave 4
    G# 1
    rest 5
    G# 1
    rest 1
    octave 5
    E_ 1
    rest 1
    octave 4
    G# 1
    rest 3
    octave 5
    E_ 1
    rest 1
    octave 4
    G# 1
    rest 5
    G# 1
    rest 1
    octave 5
    E_ 1
    rest 1
    octave 4
    G# 1
    rest 3
    octave 5
    E_ 1
    rest 1
    octave 4
    G# 1
    rest 5
    G# 1
    rest 1
    octave 5
    E_ 1
    rest 1
    octave 4
    G# 1
    rest 3
    octave 5
    E_ 1
    rest 1
    octave 4
    G# 1
    rest 5
    G# 1
    rest 1
    octave 5
    E_ 1
    rest 1
    octave 4
    G# 1
    rest 3
    octave 5
    E_ 1
    rest 1
    octave 4
    G# 1
    rest 5
    G# 1
    rest 1
    octave 5
    E_ 1
    rest 1
    octave 4
    G# 1
    rest 3
    octave 5
    E_ 1
    rest 1
    octave 4
    G# 1
    rest 5
    G# 1
    rest 1
    octave 5
    E_ 1
    rest 1
    octave 4
    G# 1
    rest 3
    octave 5
    E_ 1
    rest 1
    octave 4
    G# 1
    rest 5
    G# 1
    rest 1
    octave 5
    E_ 1
    rest 1
Music_TitleScreen_Ch2_Loop
    octave 4
    G# 1
    rest 1
    pitchbend 0, 0
    F_ 2
    pitchbend 1, 22
    octave 5
    E_ 1
    rest 1
    octave 4
    G# 1
    rest 1
    pitchbend 0, 0
    G_ 4
    pitchbend 1, 22
    G# 1
    rest 1
    octave 5
    E_ 1
    rest 1
    octave 4
    G# 1
    rest 1
    pitchbend 0, 0
    F_ 2
    pitchbend 1, 22
    octave 5
    E_ 1
    rest 1
    octave 4
    G# 1
    rest 1
    pitchbend 0, 0
    G_ 4
    pitchbend 1, 22
    G# 1
    rest 1
    octave 5
    E_ 1
    rest 1
    octave 4
    G# 1
    rest 1
    pitchbend 0, 0
    A# 2
    pitchbend 1, 22
    octave 5
    E_ 1
    rest 1
    octave 4
    G# 1
    rest 1
    pitchbend 0, 0
    octave 5
    C_ 4
    pitchbend 1, 22
    octave 4
    G# 1
    rest 1
    octave 5
    E_ 1
    rest 1
    octave 4
    G# 1
    rest 1
    pitchbend 0, 0
    A# 2
    pitchbend 1, 22
    octave 5
    E_ 1
    rest 1
    octave 4
    G# 1
    rest 1
    pitchbend 0, 0
    octave 5
    C_ 4
    pitchbend 1, 22
    octave 4
    G# 1
    rest 1
    octave 5
    E_ 1
    rest 1
    octave 4
    G# 1
    rest 1
    pitchbend 0, 0
    G_ 2
    pitchbend 1, 22
    octave 5
    E_ 1
    rest 1
    octave 4
    G# 1
    rest 1
    pitchbend 0, 0
    A_ 4
    pitchbend 1, 22
    G# 1
    rest 1
    octave 5
    E_ 1
    rest 1
    octave 4
    G# 1
    rest 1
    pitchbend 0, 0
    G_ 2
    pitchbend 1, 22
    octave 5
    E_ 1
    rest 1
    octave 4
    G# 1
    rest 1
    pitchbend 0, 0
    A_ 4
    pitchbend 1, 22
    G# 1
    rest 1
    octave 5
    E_ 1
    rest 1
    octave 4
    G# 1
    rest 1
    pitchbend 0, 0
    D_ 2
    pitchbend 1, 22
    octave 5
    E_ 1
    rest 1
    octave 4
    G# 1
    rest 1
    pitchbend 0, 0
    C_ 4
    pitchbend 1, 22
    G# 1
    rest 1
    octave 5
    E_ 1
    rest 1
    octave 4
    G# 1
    rest 1
    pitchbend 0, 0
    octave 3
    B_ 2
    pitchbend 1, 22
    octave 5
    E_ 1
    rest 1
    octave 4
    G# 1
    rest 1
    pitchbend 0, 0
    octave 3
    A# 4
    pitchbend 1, 22
    octave 4
    G# 1
    rest 1
    octave 5
    E_ 1
    rest 1
    octave 4
    G# 1
    rest 1
    pitchbend 0, 0
    F_ 2
    pitchbend 1, 22
    octave 5
    E_ 1
    rest 1
    octave 4
    G# 1
    rest 1
    pitchbend 0, 0
    G_ 4
    pitchbend 1, 22
    G# 1
    rest 1
    octave 5
    E_ 1
    rest 1
    octave 4
    G# 1
    rest 1
    pitchbend 0, 0
    F_ 2
    pitchbend 1, 22
    octave 5
    E_ 1
    rest 1
    octave 4
    G# 1
    rest 1
    pitchbend 0, 0
    G_ 4
    pitchbend 1, 22
    G# 1
    rest 1
    octave 5
    E_ 1
    rest 1
    octave 4
    G# 1
    rest 1
    pitchbend 0, 0
    A# 2
    pitchbend 1, 22
    octave 5
    E_ 1
    rest 1
    octave 4
    G# 1
    rest 1
    pitchbend 0, 0
    octave 5
    C_ 4
    pitchbend 1, 22
    octave 4
    G# 1
    rest 1
    octave 5
    E_ 1
    rest 1
    octave 4
    G# 1
    rest 1
    pitchbend 0, 0
    A# 2
    pitchbend 1, 22
    octave 5
    E_ 1
    rest 1
    octave 4
    G# 1
    rest 1
    pitchbend 0, 0
    octave 5
    C_ 4
    pitchbend 1, 22
    octave 4
    G# 1
    rest 1
    octave 5
    E_ 1
    rest 1
    octave 4
    G# 1
    rest 1
    pitchbend 0, 0
    A# 2
    pitchbend 1, 22
    octave 5
    E_ 1
    rest 1
    octave 4
    G# 1
    rest 1
    pitchbend 0, 0
    octave 5
    C_ 4
    pitchbend 1, 22
    octave 4
    G# 1
    rest 1
    octave 5
    E_ 1
    rest 1
    octave 4
    G# 1
    rest 1
    pitchbend 0, 0
    A_ 2
    pitchbend 1, 22
    octave 5
    E_ 1
    rest 1
    octave 4
    G# 1
    rest 1
    pitchbend 0, 0
    octave 5
    C_ 4
    pitchbend 1, 22
    octave 4
    G# 1
    rest 1
    octave 5
    E_ 1
    rest 1
    octave 4
    G# 1
    rest 1
    pitchbend 0, 0
    A# 2
    pitchbend 1, 22
    octave 5
    E_ 1
    rest 1
    octave 4
    G# 1
    rest 1
    pitchbend 0, 0
    octave 5
    D_ 4
    pitchbend 1, 22
    octave 4
    G# 1
    rest 1
    octave 5
    E_ 1
    rest 1
    octave 4
    G# 1
    rest 3
    octave 5
    E_ 1
    rest 1
    octave 4
    G# 1
    rest 5
    G# 1
    rest 1
    octave 5
    E_ 1
    rest 1
    octave 4
    G# 1
    rest 3
    octave 5
    E_ 1
    rest 1
    octave 4
    G# 1
    rest 5
    G# 1
    rest 1
    octave 5
    E_ 1
    rest 1
    octave 4
    G# 1
    rest 3
    octave 5
    E_ 1
    rest 1
    octave 4
    G# 1
    rest 5
    G# 1
    rest 1
    octave 5
    E_ 1
    rest 1
    octave 4
    G# 1
    rest 3
    octave 5
    E_ 1
    rest 1
    octave 4
    G# 1
    rest 5
    G# 1
    rest 1
    octave 5
    E_ 1
    rest 1
    octave 4
    G# 1
    rest 3
    octave 5
    E_ 1
    rest 1
    octave 4
    G# 1
    rest 5
    G# 1
    rest 1
    octave 5
    E_ 1
    rest 1
    octave 4
    G# 1
    rest 3
    octave 5
    E_ 1
    rest 1
    octave 4
    G# 1
    rest 5
    G# 1
    rest 1
    octave 5
    E_ 1
    rest 1
    octave 4
    G# 1
    rest 3
    octave 5
    E_ 1
    rest 1
    octave 4
    G# 1
    rest 5
    G# 1
    rest 1
    octave 5
    E_ 1
    rest 1
    octave 4
    G# 1
    rest 3
    octave 5
    E_ 1
    rest 1
    octave 4
    G# 1
    rest 5
    G# 1
    rest 1
    octave 5
    E_ 1
    rest 1
    octave 4
    G# 1
    rest 3
    octave 5
    E_ 1
    rest 1
    octave 4
    G# 1
    rest 5
    G# 1
    rest 1
    octave 5
    E_ 1
    rest 1
    octave 4
    G# 1
    rest 3
    octave 5
    E_ 1
    rest 1
    octave 4
    G# 1
    rest 5
    G# 1
    rest 1
    octave 5
    E_ 1
    rest 1
    octave 4
    G# 1
    rest 3
    octave 5
    E_ 1
    rest 1
    octave 4
    G# 1
    rest 5
    G# 1
    rest 1
    octave 5
    E_ 1
    rest 1
    octave 4
    G# 1
    rest 3
    octave 5
    E_ 1
    rest 1
    octave 4
    G# 1
    rest 5
    G# 1
    rest 1
    octave 5
    E_ 1
    rest 1
    octave 4
    G# 1
    rest 3
    octave 5
    E_ 1
    rest 1
    octave 4
    G# 1
    rest 5
    G# 1
    rest 1
    octave 5
    E_ 1
    rest 1
    octave 4
    G# 1
    rest 3
    octave 5
    E_ 1
    rest 1
    octave 4
    G# 1
    rest 5
    G# 1
    rest 1
    octave 5
    E_ 1
    rest 1
    octave 4
    G# 1
    rest 3
    octave 5
    E_ 1
    rest 1
    octave 4
    G# 1
    rest 5
    G# 1
    rest 1
    octave 5
    E_ 1
    rest 1
    octave 4
    G# 1
    rest 3
    octave 5
    E_ 1
    rest 1
    octave 4
    G# 1
    rest 5
    G# 1
    rest 1
    octave 5
    E_ 1
    rest 1
    octave 4
    G# 1
    rest 3
    octave 5
    E_ 1
    rest 1
    octave 4
    G# 1
    rest 5
    G# 1
    rest 1
    octave 5
    E_ 1
    rest 1
loopchannel