Music_2PlayerMatchFinish_Ch0:
    tempo 128
    vibrato 12, 2, 3
    toggleperfectpitch
    duty 2
    notetype 12, 9, 3
    octave 3
    A_ 2
    A_ 1
    A# 1
    octave 4
    C_ 6
    C_ 2
    octave 3
    A_ 2
    octave 4
    C_ 2
    D_ 2
    E_ 2
    F_ 2
    G_ 2
    A_ 8
    endchannel
Music_2PlayerMatchFinish_Ch1:
    duty 2
    vibrato 10, 2, 4
    notetype 12, 10, 3
    octave 4
    F_ 2
    F_ 1
    F_ 1
    F_ 6
    F_ 2
    G_ 2
    A_ 2
    A# 3
    octave 5
    C_ 1
    D_ 2
    E_ 2
    F_ 8
    endchannel
Music_2PlayerMatchFinish_Ch2:
    notetype 12, 1, 0
    octave 3
    F_ 2
    F_ 1
    E_ 1
    F_ 6
    C_ 2
    D_ 2
    E_ 2
    F_ 3
    G_ 1
    A_ 2
    G_ 2
    F_ 4
    rest 4
    endchannel