Music_2PlayerMenuCopy_Ch0:
    tempo 144
    volume $77
    duty 2
    notetype 4, 11, 1
    rest 1
    toggleperfectpitch
    notetype 12, 12, 1
    rest 16
Music_2PlayerMenuCopy_Ch0_loop:
    notetype 8, 11, 1
    octave 4
    C_ 3
    C_ 1
    C_ 1
    C_ 1
    E_ 2
    C_ 2
    E_ 2
    G_ 2
    E_ 2
    G_ 2
    octave 5
    C_ 4
    C_ 2
    octave 4
    E_ 3
    E_ 1
    E_ 1
    E_ 1
    G_ 2
    E_ 2
    G_ 2
    octave 5
    C_ 2
    octave 4
    G_ 2
    octave 5
    C_ 2
    E_ 4
    E_ 2
    C_ 3
    C_ 1
    C_ 1
    C_ 1
    octave 4
    G_ 2
    octave 5
    C_ 2
    octave 4
    G_ 2
    octave 5
    C_ 2
    octave 4
    G_ 2
    E_ 2
    C_ 4
    C_ 2
    E_ 4
    E_ 2
    G_ 4
    G_ 2
    octave 5
    C_ 4
    C_ 2
    octave 4
    G_ 4
    G_ 2
    G_ 4
    G_ 2
    octave 5
    C_ 4
    C_ 2
    E_ 4
    E_ 2
    C_ 4
    C_ 2
    C_ 2
    C_ 2
    C_ 2
    E_ 6
    C_ 2
    C_ 2
    C_ 2
    E_ 6
    octave 4
    G_ 2
    G_ 2
    G_ 2
    octave 5
    C_ 6
    octave 4
    G_ 2
    G_ 2
    G_ 2
    octave 5
    C_ 6
    loopchannel 0, Music_2PlayerMenuCopy_Ch0_loop
Music_2PlayerMenuCopy_Ch1:
    duty 2
    notetype 12, 12, 1
    rest 16
Music_2PlayerMenuCopy_Ch1_loop:
    notetype 8, 12, 1
    octave 4
    C_ 3
    C_ 1
    C_ 1
    C_ 1
    E_ 2
    C_ 2
    E_ 2
    G_ 2
    E_ 2
    G_ 2
    octave 5
    C_ 4
    C_ 2
    octave 4
    E_ 3
    E_ 1
    E_ 1
    E_ 1
    G_ 2
    E_ 2
    G_ 2
    octave 5
    C_ 2
    octave 4
    G_ 2
    octave 5
    C_ 2
    E_ 4
    E_ 2
    C_ 3
    C_ 1
    C_ 1
    C_ 1
    octave 4
    G_ 2
    octave 5
    C_ 2
    octave 4
    G_ 2
    octave 5
    C_ 2
    octave 4
    G_ 2
    E_ 2
    C_ 4
    C_ 2
    E_ 4
    E_ 2
    G_ 4
    G_ 2
    octave 5
    C_ 4
    C_ 2
    octave 4
    G_ 4
    G_ 2
    G_ 4
    G_ 2
    octave 5
    C_ 4
    C_ 2
    E_ 4
    E_ 2
    C_ 4
    C_ 2
    C_ 2
    C_ 2
    C_ 2
    E_ 6
    C_ 2
    C_ 2
    C_ 2
    E_ 6
    octave 4
    G_ 2
    G_ 2
    G_ 2
    octave 5
    C_ 6
    octave 4
    G_ 2
    G_ 2
    G_ 2
    octave 5
    C_ 6
    loopchannel 0, Music_2PlayerMenuCopy_Ch1_loop