Music_2PlayerMatchOverCopy_Ch0:
    tempo 128
    vibrato 12, 2, 4
    duty 2
    notetype 12, 11, 3
Music_2PlayerMatchOverCopy_Ch0_loop:
    callchannel Music_2PlayerMatchOverCopy_Branch7806
    rest 16
    rest 16
    rest 16
    rest 16
    callchannel Music_2PlayerMatchOverCopy_Branch7806
    notetype 12, 9, 3
    callchannel Music_2PlayerMatchOverCopy_Branch784c
    callchannel Music_2PlayerMatchOverCopy_Branch786b
    notetype 12, 11, 3
    callchannel Music_2PlayerMatchOverCopy_Branch7806
    loopchannel 0, Music_2PlayerMatchOverCopy_Ch0_loop
Music_2PlayerMatchOverCopy_Branch7806:
    octave 4
    C_ 3
    octave 3
    A_ 1
    octave 4
    C_ 2
    F_ 4
    E_ 4
    D_ 2
    E_ 4
    G_ 12
    octave 3
    A# 3
    G_ 1
    octave 4
    C_ 2
    E_ 4
    D_ 4
    E_ 2
    F_ 4
    C_ 12
    endchannel
Music_2PlayerMatchOverCopy_Ch1:
    toggleperfectpitch
    duty 2
    vibrato 10, 2, 3
Music_2PlayerMatchOverCopy_Ch1_loop
    notetype 12, 12, 2
    callchannel Music_2PlayerMatchOverCopy_Branch784c
    notetype 12, 12, 1
    octave 2
    F_ 4
    C_ 4
    D_ 4
    E_ 4
    G_ 4
    C_ 4
    D_ 4
    C_ 4
    E_ 4
    C_ 4
    D_ 4
    E_ 4
    F_ 4
    C_ 4
    D_ 4
    E_ 4
    notetype 12, 12, 2
    callchannel Music_2PlayerMatchOverCopy_Branch784c
    callchannel Music_2PlayerMatchOverCopy_Branch784c
    Music_2PlayerMatchOverCopy_Branch786b
    callchannel Music_2PlayerMatchOverCopy_Branch7879
    loopchannel 0, Music_2PlayerMatchOverCopy_Ch1_loop
Music_2PlayerMatchOverCopy_Branch784c:
    octave 4
    F_ 3
    A_ 1
    octave 5
    C_ 2
    D_ 4
    C_ 4
    octave 4
    A_ 2
    A# 4
    octave 5
    C_ 2
    octave 4
    C_ 1
    octave 3
    B_ 1
    octave 4
    C_ 2
    octave 3
    A# 2
    G_ 4
    octave 4
    E_ 3
    G_ 1
    A_ 2
    A# 4
    A_ 4
    G_ 2
    A_ 4
    F_ 12
    endchannel
Music_2PlayerMatchOverCopy_Branch786b:
    rest 16
    rest 6
    octave 4
    C_ 1
    octave 3
    B_ 1
    octave 4
    C_ 2
    octave 3
    A# 2
    G_ 2
    rest 16
    rest 16
    endchannel
Music_2PlayerMatchOverCopy_Branch7879:
    octave 4
    F_ 3
    A_ 1
    octave 5
    C_ 2
    D_ 4
    C_ 4
    octave 4
    A_ 2
    A# 4
    octave 5
    C_ 2
    rest 10
    octave 4
    E_ 3
    G_ 1
    A_ 2
    A# 4
    A_ 4
    G_ 2
    A_ 4
    F_ 12
    endchannel
Music_2PlayerMatchOverCopy_Ch2:
Music_2PlayerMatchOverCopy_Ch2_loop:
    notetype 12, 1, 0
    callchannel Music_2PlayerMatchOverCopy_Branch78d7
    octave 5
    F_ 1
    rest 2
    A_ 1
    octave 6
    C_ 1
    rest 1
    D_ 1
    rest 3
    C_ 1
    rest 3
    octave 5
    A_ 1
    rest 1
    A# 1
    rest 3
    octave 6
    C_ 1
    rest 1
    octave 5
    C_ 1
    octave 4
    B_ 1
    octave 5
    C_ 1
    rest 1
    octave 4
    A# 1
    rest 1
    G_ 1
    rest 3
    octave 5
    E_ 1
    rest 2
    G_ 1
    A_ 1
    rest 1
    A# 1
    rest 3
    A_ 1
    rest 3
    G_ 1
    rest 1
    A_ 1
    rest 3
    F_ 1
    rest 11
    rest 16
    rest 16
    rest 16
    rest 16
    rest 16
    rest 16
    rest 16
    rest 16
    callchannel Music_2PlayerMatchOverCopy_Branch78d7
    rest 16
    rest 16
    rest 16
    rest 16
    loopchannel 0, Music_2PlayerMatchOverCopy_Ch2_loop
Music_2PlayerMatchOverCopy_Branch78d7
    octave 4
    F_ 1
    rest 3
    C_ 1
    rest 3
    D_ 1
    rest 3
    E_ 1
    rest 3
    G_ 1
    rest 3
    C_ 1
    rest 3
    D_ 1
    rest 3
    C_ 1
    rest 3
    E_ 1
    rest 3
    C_ 1
    rest 3
    D_ 1
    rest 3
    E_ 1
    rest 3
    F_ 1
    rest 3
    C_ 1
    rest 3
    D_ 1
    rest 3
    E_ 1
    rest 3
    endchannel
Music_2PlayerMatchOverCopy_Ch3:
    dspeed 12
Music_2PlayerMatchOverCopy_Ch3_loop:
    callchannel Music_2PlayerMatchOverCopy_Branch7912
    rest 16
    rest 16
    rest 16
    rest 16
    callchannel Music_2PlayerMatchOverCopy_Branch7912
    rest 16
    rest 16
    rest 16
    rest 16
    callchannel Music_2PlayerMatchOverCopy_Branch792d
    callchannel Music_2PlayerMatchOverCopy_Branch7941
    loopchannel 0, Music_2PlayerMatchOverCopy_Ch3_loop
Music_2PlayerMatchOverCopy_Branch7912:
    kick 4
    monsnare1 2
    monsnare1 2
    kick 4
    monsnare1 4
    kick 2
    monsnare1 2
    monsnare1 2
    monsnare1 2
    kick 4
    monsnare1 4
    loopchannel 2, Music_2PlayerMatchOverCopy_Branch7912
    endchannel
Music_2PlayerMatchOverCopy_Branch792d:
    kick 4
    rest 2
    rest 2
    kick 4
    rest 4
    kick 2
    rest 2
    rest 2
    rest 2
    kick 4
    rest 4
    loopchannel 2, Music_2PlayerMatchOverCopy_Branch792d
    endchannel
Music_2PlayerMatchOverCopy_Branch7941:
    rest 4
    monsnare1 2
    monsnare1 2
    rest 4
    monsnare1 4
    rest 2
    monsnare1 2
    monsnare1 2
    monsnare1 2
    rest 4
    monsnare1 4
    loopchannel 2, Music_2PlayerMatchOverCopy_Branch7941
    endchannel