Music_TypeBClear_Ch0:
    tempo 128
    volume $77
    duty 2
    toggleperfectpitch
    vibrato 1, 2, 3
    notetype 12, 11, 1
    octave 3
    B_ 1
    octave 4
    G# 5
    A_ 1
    G# 2
    F# 1
    E_ 2
    D# 1
    octave 3
    B_ 2
    A_ 1
    G# 2
    A_ 1
    B_ 3
    notetype 12, 11, 2
    octave 4
    G# 10
    endchannel

Music_TypeBClear_Ch1:
    duty 2
    vibrato 0, 2, 4
    notetype 12, 12, 2
    octave 4
    E_ 1
    B_ 5
    octave 5
    C# 1
    octave 4
    B_ 2
    A_ 1
    G# 2
    F# 1
    E_ 2
    F# 1
    G# 2
    F# 1
    E_ 3
    notetype 12, 12, 3
    octave 5
    E_ 10
    endchannel
